<?xml version="1.0" encoding="UTF-8" standalone="no"?>
<!DOCTYPE svg PUBLIC "-//W3C//DTD SVG 1.1//EN"
 "http://www.w3.org/Graphics/SVG/1.1/DTD/svg11.dtd">
<!-- Generated by graphviz version 2.40.1 (20161225.0304)
 -->
<!-- Title: compactRelationshipsDiagram Pages: 1 -->
<svg width="930pt" height="605pt"
 viewBox="0.00 0.00 930.00 605.20" xmlns="http://www.w3.org/2000/svg" xmlns:xlink="http://www.w3.org/1999/xlink">
<g id="graph0" class="graph" transform="scale(1 1) rotate(0) translate(4 601.2)">
<title>compactRelationshipsDiagram</title>
<polygon fill="#ffffff" stroke="transparent" points="-4,4 -4,-601.2 926,-601.2 926,4 -4,4"/>
<text text-anchor="middle" x="72.4936" y="-7.3" font-family="Helvetica,sans-Serif" font-size="11.00" fill="#000000">Generated by SchemaSpy</text>
<!-- CodeTable -->
<g id="node1" class="node">
<title>CodeTable</title>
<g id="a_node1"><a xlink:href="../../tables/CodeTable.html" xlink:title="CodeTable" target="_top">
<polygon fill="#ffffff" stroke="transparent" points="190,-38.2 190,-143.2 381,-143.2 381,-38.2 190,-38.2"/>
<polygon fill="#f5f5f5" stroke="transparent" points="190.5,-119.7 190.5,-142.7 381.5,-142.7 381.5,-119.7 190.5,-119.7"/>
<polygon fill="none" stroke="#000000" points="190.5,-119.7 190.5,-142.7 381.5,-142.7 381.5,-119.7 190.5,-119.7"/>
<text text-anchor="start" x="195.5" y="-128.8" font-family="Helvetica,sans-Serif" font-weight="bold" font-size="11.00" fill="#000000">CodeTable</text>
<text text-anchor="start" x="346.5437" y="-127.8" font-family="Helvetica,sans-Serif" font-size="11.00" fill="#000000">[table]</text>
<polygon fill="none" stroke="#000000" points="190.5,-97.7 190.5,-119.7 381.5,-119.7 381.5,-97.7 190.5,-97.7"/>
<image xlink:href="../../images/primaryKeys.png" width="11px" height="12px" preserveAspectRatio="xMinYMin meet" x="195.5" y="-114.7"/>
<text text-anchor="start" x="210.5" y="-104.8" font-family="Helvetica,sans-Serif" font-size="11.00" fill="#000000">cldf_id</text>
<polygon fill="none" stroke="#000000" points="190.5,-75.7 190.5,-97.7 381.5,-97.7 381.5,-75.7 190.5,-75.7"/>
<image xlink:href="../../images/foreignKeys.png" width="11px" height="12px" preserveAspectRatio="xMinYMin meet" x="195.5" y="-92.7"/>
<text text-anchor="start" x="210.5" y="-82.8" font-family="Helvetica,sans-Serif" font-size="11.00" fill="#000000">cldf_parameterReference</text>
<polygon fill="none" stroke="#000000" points="190.5,-56.7 190.5,-75.7 381.5,-75.7 381.5,-56.7 190.5,-56.7"/>
<text text-anchor="start" x="193.5" y="-62.8" font-family="Helvetica,sans-Serif" font-size="11.00" fill="#000000">...</text>
<polygon fill="#ffffff" stroke="transparent" points="190.5,-37.7 190.5,-56.7 263.5,-56.7 263.5,-37.7 190.5,-37.7"/>
<polygon fill="none" stroke="#000000" points="190.5,-37.7 190.5,-56.7 263.5,-56.7 263.5,-37.7 190.5,-37.7"/>
<text text-anchor="start" x="193.5" y="-43.8" font-family="Helvetica,sans-Serif" font-size="11.00" fill="#000000">&lt; 1</text>
<polygon fill="#ffffff" stroke="transparent" points="263.5,-37.7 263.5,-56.7 333.5,-56.7 333.5,-37.7 263.5,-37.7"/>
<polygon fill="none" stroke="#000000" points="263.5,-37.7 263.5,-56.7 333.5,-56.7 333.5,-37.7 263.5,-37.7"/>
<text text-anchor="start" x="291.9956" y="-43.8" font-family="Helvetica,sans-Serif" font-size="11.00" fill="#000000">31 rows</text>
<polygon fill="#ffffff" stroke="transparent" points="333.5,-37.7 333.5,-56.7 381.5,-56.7 381.5,-37.7 333.5,-37.7"/>
<polygon fill="none" stroke="#000000" points="333.5,-37.7 333.5,-56.7 381.5,-56.7 381.5,-37.7 333.5,-37.7"/>
<text text-anchor="start" x="362.9053" y="-43.8" font-family="Helvetica,sans-Serif" font-size="11.00" fill="#000000">1 &gt;</text>
</a>
</g>
</g>
<!-- ParameterTable -->
<g id="node6" class="node">
<title>ParameterTable</title>
<g id="a_node6"><a xlink:href="../../tables/ParameterTable.html" xlink:title="ParameterTable" target="_top">
<polygon fill="#ffffff" stroke="transparent" points="8,-201.2 8,-284.2 141,-284.2 141,-201.2 8,-201.2"/>
<polygon fill="#f5f5f5" stroke="transparent" points="8.5,-260.7 8.5,-283.7 141.5,-283.7 141.5,-260.7 8.5,-260.7"/>
<polygon fill="none" stroke="#000000" points="8.5,-260.7 8.5,-283.7 141.5,-283.7 141.5,-260.7 8.5,-260.7"/>
<text text-anchor="start" x="13.5" y="-269.8" font-family="Helvetica,sans-Serif" font-weight="bold" font-size="11.00" fill="#000000">ParameterTable</text>
<text text-anchor="start" x="106.5437" y="-268.8" font-family="Helvetica,sans-Serif" font-size="11.00" fill="#000000">[table]</text>
<polygon fill="none" stroke="#000000" points="8.5,-238.7 8.5,-260.7 141.5,-260.7 141.5,-238.7 8.5,-238.7"/>
<image xlink:href="../../images/primaryKeys.png" width="11px" height="12px" preserveAspectRatio="xMinYMin meet" x="13.5" y="-255.7"/>
<text text-anchor="start" x="28.5" y="-245.8" font-family="Helvetica,sans-Serif" font-size="11.00" fill="#000000">cldf_id</text>
<polygon fill="none" stroke="#000000" points="8.5,-219.7 8.5,-238.7 141.5,-238.7 141.5,-219.7 8.5,-219.7"/>
<text text-anchor="start" x="11.5" y="-225.8" font-family="Helvetica,sans-Serif" font-size="11.00" fill="#000000">...</text>
<polygon fill="#ffffff" stroke="transparent" points="8.5,-200.7 8.5,-219.7 51.5,-219.7 51.5,-200.7 8.5,-200.7"/>
<polygon fill="none" stroke="#000000" points="8.5,-200.7 8.5,-219.7 51.5,-219.7 51.5,-200.7 8.5,-200.7"/>
<text text-anchor="start" x="11.5" y="-206.8" font-family="Helvetica,sans-Serif" font-size="11.00" fill="#000000"> &#160;</text>
<polygon fill="#ffffff" stroke="transparent" points="51.5,-200.7 51.5,-219.7 104.5,-219.7 104.5,-200.7 51.5,-200.7"/>
<polygon fill="none" stroke="#000000" points="51.5,-200.7 51.5,-219.7 104.5,-219.7 104.5,-200.7 51.5,-200.7"/>
<text text-anchor="start" x="69.1105" y="-206.8" font-family="Helvetica,sans-Serif" font-size="11.00" fill="#000000">9 rows</text>
<polygon fill="#ffffff" stroke="transparent" points="104.5,-200.7 104.5,-219.7 141.5,-219.7 141.5,-200.7 104.5,-200.7"/>
<polygon fill="none" stroke="#000000" points="104.5,-200.7 104.5,-219.7 141.5,-219.7 141.5,-200.7 104.5,-200.7"/>
<text text-anchor="start" x="122.9053" y="-206.8" font-family="Helvetica,sans-Serif" font-size="11.00" fill="#000000">4 &gt;</text>
</a>
</g>
</g>
<!-- CodeTable&#45;&gt;ParameterTable -->
<g id="edge1" class="edge">
<title>CodeTable:w&#45;&gt;ParameterTable:e</title>
<path fill="none" stroke="#000000" d="M176.1535,-89.3932C129.4044,-110.5863 211.3848,-249.7 141.5,-249.7"/>
<polygon fill="#000000" stroke="#000000" points="182.6373,-88.1761 191.1642,-90.2382 186.5687,-87.438 190.5,-86.7 190.5,-86.7 190.5,-86.7 186.5687,-87.438 189.8358,-83.1618 182.6373,-88.1761 182.6373,-88.1761"/>
<ellipse fill="none" stroke="#000000" cx="179.4923" cy="-88.7665" rx="3.2" ry="3.2"/>
</g>
<!-- ContributionTable -->
<g id="node2" class="node">
<title>ContributionTable</title>
<g id="a_node2"><a xlink:href="../../tables/ContributionTable.html" xlink:title="ContributionTable" target="_top">
<polygon fill="#ffffff" stroke="transparent" points="214,-235.2 214,-318.2 357,-318.2 357,-235.2 214,-235.2"/>
<polygon fill="#f5f5f5" stroke="transparent" points="214.5,-294.7 214.5,-317.7 357.5,-317.7 357.5,-294.7 214.5,-294.7"/>
<polygon fill="none" stroke="#000000" points="214.5,-294.7 214.5,-317.7 357.5,-317.7 357.5,-294.7 214.5,-294.7"/>
<text text-anchor="start" x="219.5" y="-303.8" font-family="Helvetica,sans-Serif" font-weight="bold" font-size="11.00" fill="#000000">ContributionTable</text>
<text text-anchor="start" x="322.5437" y="-302.8" font-family="Helvetica,sans-Serif" font-size="11.00" fill="#000000">[table]</text>
<polygon fill="none" stroke="#000000" points="214.5,-272.7 214.5,-294.7 357.5,-294.7 357.5,-272.7 214.5,-272.7"/>
<image xlink:href="../../images/primaryKeys.png" width="11px" height="12px" preserveAspectRatio="xMinYMin meet" x="219.5" y="-289.7"/>
<text text-anchor="start" x="234.5" y="-279.8" font-family="Helvetica,sans-Serif" font-size="11.00" fill="#000000">cldf_id</text>
<polygon fill="none" stroke="#000000" points="214.5,-253.7 214.5,-272.7 357.5,-272.7 357.5,-253.7 214.5,-253.7"/>
<text text-anchor="start" x="217.5" y="-259.8" font-family="Helvetica,sans-Serif" font-size="11.00" fill="#000000">...</text>
<polygon fill="#ffffff" stroke="transparent" points="214.5,-234.7 214.5,-253.7 262.5,-253.7 262.5,-234.7 214.5,-234.7"/>
<polygon fill="none" stroke="#000000" points="214.5,-234.7 214.5,-253.7 262.5,-253.7 262.5,-234.7 214.5,-234.7"/>
<text text-anchor="start" x="217.5" y="-240.8" font-family="Helvetica,sans-Serif" font-size="11.00" fill="#000000"> &#160;</text>
<polygon fill="#ffffff" stroke="transparent" points="262.5,-234.7 262.5,-253.7 318.5,-253.7 318.5,-234.7 262.5,-234.7"/>
<polygon fill="none" stroke="#000000" points="262.5,-234.7 262.5,-253.7 318.5,-253.7 318.5,-234.7 262.5,-234.7"/>
<text text-anchor="start" x="283.1105" y="-240.8" font-family="Helvetica,sans-Serif" font-size="11.00" fill="#000000">4 rows</text>
<polygon fill="#ffffff" stroke="transparent" points="318.5,-234.7 318.5,-253.7 357.5,-253.7 357.5,-234.7 318.5,-234.7"/>
<polygon fill="none" stroke="#000000" points="318.5,-234.7 318.5,-253.7 357.5,-253.7 357.5,-234.7 318.5,-234.7"/>
<text text-anchor="start" x="338.9053" y="-240.8" font-family="Helvetica,sans-Serif" font-size="11.00" fill="#000000">1 &gt;</text>
</a>
</g>
</g>
<!-- FormTable -->
<g id="node3" class="node">
<title>FormTable</title>
<g id="a_node3"><a xlink:href="../../tables/FormTable.html" xlink:title="FormTable" target="_top">
<polygon fill="#ffffff" stroke="transparent" points="451.5,-318.2 451.5,-467.2 657.5,-467.2 657.5,-318.2 451.5,-318.2"/>
<polygon fill="#f5f5f5" stroke="transparent" points="451.5,-443.7 451.5,-466.7 657.5,-466.7 657.5,-443.7 451.5,-443.7"/>
<polygon fill="none" stroke="#000000" points="451.5,-443.7 451.5,-466.7 657.5,-466.7 657.5,-443.7 451.5,-443.7"/>
<text text-anchor="start" x="456.5" y="-452.8" font-family="Helvetica,sans-Serif" font-weight="bold" font-size="11.00" fill="#000000">FormTable</text>
<text text-anchor="start" x="622.5437" y="-451.8" font-family="Helvetica,sans-Serif" font-size="11.00" fill="#000000">[table]</text>
<polygon fill="none" stroke="#000000" points="451.5,-421.7 451.5,-443.7 657.5,-443.7 657.5,-421.7 451.5,-421.7"/>
<image xlink:href="../../images/primaryKeys.png" width="11px" height="12px" preserveAspectRatio="xMinYMin meet" x="456.5" y="-438.7"/>
<text text-anchor="start" x="471.5" y="-428.8" font-family="Helvetica,sans-Serif" font-size="11.00" fill="#000000">cldf_id</text>
<polygon fill="none" stroke="#000000" points="451.5,-399.7 451.5,-421.7 657.5,-421.7 657.5,-399.7 451.5,-399.7"/>
<image xlink:href="../../images/foreignKeys.png" width="11px" height="12px" preserveAspectRatio="xMinYMin meet" x="456.5" y="-416.7"/>
<text text-anchor="start" x="471.5" y="-406.8" font-family="Helvetica,sans-Serif" font-size="11.00" fill="#000000">cldf_languageReference</text>
<polygon fill="none" stroke="#000000" points="451.5,-377.7 451.5,-399.7 657.5,-399.7 657.5,-377.7 451.5,-377.7"/>
<image xlink:href="../../images/foreignKeys.png" width="11px" height="12px" preserveAspectRatio="xMinYMin meet" x="456.5" y="-394.7"/>
<text text-anchor="start" x="471.5" y="-384.8" font-family="Helvetica,sans-Serif" font-size="11.00" fill="#000000">cldf_parameterReference</text>
<polygon fill="none" stroke="#000000" points="451.5,-355.7 451.5,-377.7 657.5,-377.7 657.5,-355.7 451.5,-355.7"/>
<image xlink:href="../../images/foreignKeys.png" width="11px" height="12px" preserveAspectRatio="xMinYMin meet" x="456.5" y="-372.7"/>
<text text-anchor="start" x="471.5" y="-362.8" font-family="Helvetica,sans-Serif" font-size="11.00" fill="#000000">cldf_contributionReference</text>
<polygon fill="none" stroke="#000000" points="451.5,-336.7 451.5,-355.7 657.5,-355.7 657.5,-336.7 451.5,-336.7"/>
<text text-anchor="start" x="454.5" y="-342.8" font-family="Helvetica,sans-Serif" font-size="11.00" fill="#000000">...</text>
<polygon fill="#ffffff" stroke="transparent" points="451.5,-317.7 451.5,-336.7 524.5,-336.7 524.5,-317.7 451.5,-317.7"/>
<polygon fill="none" stroke="#000000" points="451.5,-317.7 451.5,-336.7 524.5,-336.7 524.5,-317.7 451.5,-317.7"/>
<text text-anchor="start" x="454.5" y="-323.8" font-family="Helvetica,sans-Serif" font-size="11.00" fill="#000000">&lt; 3</text>
<polygon fill="#ffffff" stroke="transparent" points="524.5,-317.7 524.5,-336.7 609.5,-336.7 609.5,-317.7 524.5,-317.7"/>
<polygon fill="none" stroke="#000000" points="524.5,-317.7 524.5,-336.7 609.5,-336.7 609.5,-317.7 524.5,-317.7"/>
<text text-anchor="start" x="552.7089" y="-323.8" font-family="Helvetica,sans-Serif" font-size="11.00" fill="#000000">2,023 rows</text>
<polygon fill="#ffffff" stroke="transparent" points="609.5,-317.7 609.5,-336.7 657.5,-336.7 657.5,-317.7 609.5,-317.7"/>
<polygon fill="none" stroke="#000000" points="609.5,-317.7 609.5,-336.7 657.5,-336.7 657.5,-317.7 609.5,-317.7"/>
<text text-anchor="start" x="638.9053" y="-323.8" font-family="Helvetica,sans-Serif" font-size="11.00" fill="#000000">1 &gt;</text>
</a>
</g>
</g>
<!-- FormTable&#45;&gt;ContributionTable -->
<g id="edge2" class="edge">
<title>FormTable:w&#45;&gt;ContributionTable:e</title>
<path fill="none" stroke="#000000" d="M437.1299,-364.48C398.4802,-351.2806 407.7904,-283.7 357.5,-283.7"/>
<polygon fill="#000000" stroke="#000000" points="443.5938,-365.4785 450.9503,-370.2578 447.5469,-366.0893 451.5,-366.7 451.5,-366.7 451.5,-366.7 447.5469,-366.0893 452.0497,-363.1422 443.5938,-365.4785 443.5938,-365.4785"/>
<ellipse fill="none" stroke="#000000" cx="440.4313" cy="-364.9899" rx="3.2" ry="3.2"/>
</g>
<!-- LanguageTable -->
<g id="node5" class="node">
<title>LanguageTable</title>
<g id="a_node5"><a xlink:href="../../tables/LanguageTable.html" xlink:title="LanguageTable" target="_top">
<polygon fill="#ffffff" stroke="transparent" points="213,-367.2 213,-450.2 358,-450.2 358,-367.2 213,-367.2"/>
<polygon fill="#f5f5f5" stroke="transparent" points="213.5,-426.7 213.5,-449.7 358.5,-449.7 358.5,-426.7 213.5,-426.7"/>
<polygon fill="none" stroke="#000000" points="213.5,-426.7 213.5,-449.7 358.5,-449.7 358.5,-426.7 213.5,-426.7"/>
<text text-anchor="start" x="218.5" y="-435.8" font-family="Helvetica,sans-Serif" font-weight="bold" font-size="11.00" fill="#000000">LanguageTable</text>
<text text-anchor="start" x="323.5437" y="-434.8" font-family="Helvetica,sans-Serif" font-size="11.00" fill="#000000">[table]</text>
<polygon fill="none" stroke="#000000" points="213.5,-404.7 213.5,-426.7 358.5,-426.7 358.5,-404.7 213.5,-404.7"/>
<image xlink:href="../../images/primaryKeys.png" width="11px" height="12px" preserveAspectRatio="xMinYMin meet" x="218.5" y="-421.7"/>
<text text-anchor="start" x="233.5" y="-411.8" font-family="Helvetica,sans-Serif" font-size="11.00" fill="#000000">cldf_id</text>
<polygon fill="none" stroke="#000000" points="213.5,-385.7 213.5,-404.7 358.5,-404.7 358.5,-385.7 213.5,-385.7"/>
<text text-anchor="start" x="216.5" y="-391.8" font-family="Helvetica,sans-Serif" font-size="11.00" fill="#000000">...</text>
<polygon fill="#ffffff" stroke="transparent" points="213.5,-366.7 213.5,-385.7 251.5,-385.7 251.5,-366.7 213.5,-366.7"/>
<polygon fill="none" stroke="#000000" points="213.5,-366.7 213.5,-385.7 251.5,-385.7 251.5,-366.7 213.5,-366.7"/>
<text text-anchor="start" x="216.5" y="-372.8" font-family="Helvetica,sans-Serif" font-size="11.00" fill="#000000"> &#160;</text>
<polygon fill="#ffffff" stroke="transparent" points="251.5,-366.7 251.5,-385.7 323.5,-385.7 323.5,-366.7 251.5,-366.7"/>
<polygon fill="none" stroke="#000000" points="251.5,-366.7 251.5,-385.7 323.5,-385.7 323.5,-366.7 251.5,-366.7"/>
<text text-anchor="start" x="266.7089" y="-372.8" font-family="Helvetica,sans-Serif" font-size="11.00" fill="#000000">1,274 rows</text>
<polygon fill="#ffffff" stroke="transparent" points="323.5,-366.7 323.5,-385.7 358.5,-385.7 358.5,-366.7 323.5,-366.7"/>
<polygon fill="none" stroke="#000000" points="323.5,-366.7 323.5,-385.7 358.5,-385.7 358.5,-366.7 323.5,-366.7"/>
<text text-anchor="start" x="339.9053" y="-372.8" font-family="Helvetica,sans-Serif" font-size="11.00" fill="#000000">3 &gt;</text>
</a>
</g>
</g>
<!-- FormTable&#45;&gt;LanguageTable -->
<g id="edge3" class="edge">
<title>FormTable:w&#45;&gt;LanguageTable:e</title>
<path fill="none" stroke="#000000" d="M436.9133,-410.9278C406.9556,-411.906 394.5572,-415.7 358.5,-415.7"/>
<polygon fill="#000000" stroke="#000000" points="443.501,-410.825 451.5562,-414.2996 447.5005,-410.7625 451.5,-410.7 451.5,-410.7 451.5,-410.7 447.5005,-410.7625 451.4438,-407.1004 443.501,-410.825 443.501,-410.825"/>
<ellipse fill="none" stroke="#000000" cx="440.3014" cy="-410.875" rx="3.2" ry="3.2"/>
</g>
<!-- FormTable&#45;&gt;ParameterTable -->
<g id="edge4" class="edge">
<title>FormTable:w&#45;&gt;ParameterTable:e</title>
<path fill="none" stroke="#000000" d="M437.2173,-386.7135C418.8359,-380.9855 413.427,-364.3587 389,-356.7 300.4142,-328.9255 257.7867,-382.3213 182,-328.7 149.7906,-305.9109 180.9562,-249.7 141.5,-249.7"/>
<polygon fill="#000000" stroke="#000000" points="443.5763,-387.5979 451.0041,-392.2657 447.5381,-388.149 451.5,-388.7 451.5,-388.7 451.5,-388.7 447.5381,-388.149 451.9959,-385.1343 443.5763,-387.5979 443.5763,-387.5979"/>
<ellipse fill="none" stroke="#000000" cx="440.4068" cy="-387.1571" rx="3.2" ry="3.2"/>
</g>
<!-- FormTable_SourceTable -->
<g id="node4" class="node">
<title>FormTable_SourceTable</title>
<g id="a_node4"><a xlink:href="../../tables/FormTable_SourceTable.html" xlink:title="FormTable_SourceTable" target="_top">
<polygon fill="#ffffff" stroke="transparent" points="730,-319.2 730,-424.2 912,-424.2 912,-319.2 730,-319.2"/>
<polygon fill="#f5f5f5" stroke="transparent" points="730,-400.7 730,-423.7 912,-423.7 912,-400.7 730,-400.7"/>
<polygon fill="none" stroke="#000000" points="730,-400.7 730,-423.7 912,-423.7 912,-400.7 730,-400.7"/>
<text text-anchor="start" x="735" y="-409.8" font-family="Helvetica,sans-Serif" font-weight="bold" font-size="11.00" fill="#000000">FormTable_SourceTable</text>
<text text-anchor="start" x="877.0437" y="-408.8" font-family="Helvetica,sans-Serif" font-size="11.00" fill="#000000">[table]</text>
<polygon fill="none" stroke="#000000" points="730,-378.7 730,-400.7 912,-400.7 912,-378.7 730,-378.7"/>
<image xlink:href="../../images/foreignKeys.png" width="11px" height="12px" preserveAspectRatio="xMinYMin meet" x="735" y="-395.7"/>
<text text-anchor="start" x="750" y="-385.8" font-family="Helvetica,sans-Serif" font-size="11.00" fill="#000000">FormTable_cldf_id</text>
<polygon fill="none" stroke="#000000" points="730,-356.7 730,-378.7 912,-378.7 912,-356.7 730,-356.7"/>
<image xlink:href="../../images/foreignKeys.png" width="11px" height="12px" preserveAspectRatio="xMinYMin meet" x="735" y="-373.7"/>
<text text-anchor="start" x="750" y="-363.8" font-family="Helvetica,sans-Serif" font-size="11.00" fill="#000000">SourceTable_id</text>
<polygon fill="none" stroke="#000000" points="730,-337.7 730,-356.7 912,-356.7 912,-337.7 730,-337.7"/>
<text text-anchor="start" x="733" y="-343.8" font-family="Helvetica,sans-Serif" font-size="11.00" fill="#000000">...</text>
<polygon fill="#ffffff" stroke="transparent" points="730,-318.7 730,-337.7 796,-337.7 796,-318.7 730,-318.7"/>
<polygon fill="none" stroke="#000000" points="730,-318.7 730,-337.7 796,-337.7 796,-318.7 730,-318.7"/>
<text text-anchor="start" x="733" y="-324.8" font-family="Helvetica,sans-Serif" font-size="11.00" fill="#000000">&lt; 2</text>
<polygon fill="#ffffff" stroke="transparent" points="796,-318.7 796,-337.7 877,-337.7 877,-318.7 796,-318.7"/>
<polygon fill="none" stroke="#000000" points="796,-318.7 796,-337.7 877,-337.7 877,-318.7 796,-318.7"/>
<text text-anchor="start" x="820.2089" y="-324.8" font-family="Helvetica,sans-Serif" font-size="11.00" fill="#000000">2,023 rows</text>
<polygon fill="#ffffff" stroke="transparent" points="877,-318.7 877,-337.7 912,-337.7 912,-318.7 877,-318.7"/>
<polygon fill="none" stroke="#000000" points="877,-318.7 877,-337.7 912,-337.7 912,-318.7 877,-318.7"/>
<text text-anchor="start" x="902.8862" y="-324.8" font-family="Helvetica,sans-Serif" font-size="11.00" fill="#000000"> &#160;</text>
</a>
</g>
</g>
<!-- FormTable_SourceTable&#45;&gt;FormTable -->
<g id="edge5" class="edge">
<title>FormTable_SourceTable:w&#45;&gt;FormTable:e</title>
<path fill="none" stroke="#000000" d="M715.6929,-392.2611C692.3781,-401.5182 689.4024,-432.7 657.5,-432.7"/>
<polygon fill="#000000" stroke="#000000" points="722.1252,-391.1097 730.6344,-393.2437 726.0626,-390.4048 730,-389.7 730,-389.7 730,-389.7 726.0626,-390.4048 729.3656,-386.1563 722.1252,-391.1097 722.1252,-391.1097"/>
<ellipse fill="none" stroke="#000000" cx="718.9752" cy="-391.6736" rx="3.2" ry="3.2"/>
</g>
<!-- SourceTable -->
<g id="node9" class="node">
<title>SourceTable</title>
<g id="a_node9"><a xlink:href="../../tables/SourceTable.html" xlink:title="SourceTable" target="_top">
<polygon fill="#ffffff" stroke="transparent" points="497,-214.2 497,-297.2 612,-297.2 612,-214.2 497,-214.2"/>
<polygon fill="#f5f5f5" stroke="transparent" points="497.5,-273.7 497.5,-296.7 612.5,-296.7 612.5,-273.7 497.5,-273.7"/>
<polygon fill="none" stroke="#000000" points="497.5,-273.7 497.5,-296.7 612.5,-296.7 612.5,-273.7 497.5,-273.7"/>
<text text-anchor="start" x="502.5" y="-282.8" font-family="Helvetica,sans-Serif" font-weight="bold" font-size="11.00" fill="#000000">SourceTable</text>
<text text-anchor="start" x="577.5437" y="-281.8" font-family="Helvetica,sans-Serif" font-size="11.00" fill="#000000">[table]</text>
<polygon fill="none" stroke="#000000" points="497.5,-251.7 497.5,-273.7 612.5,-273.7 612.5,-251.7 497.5,-251.7"/>
<image xlink:href="../../images/primaryKeys.png" width="11px" height="12px" preserveAspectRatio="xMinYMin meet" x="502.5" y="-268.7"/>
<text text-anchor="start" x="517.5" y="-258.8" font-family="Helvetica,sans-Serif" font-size="11.00" fill="#000000">id</text>
<polygon fill="none" stroke="#000000" points="497.5,-232.7 497.5,-251.7 612.5,-251.7 612.5,-232.7 497.5,-232.7"/>
<text text-anchor="start" x="500.5" y="-238.8" font-family="Helvetica,sans-Serif" font-size="11.00" fill="#000000">...</text>
<polygon fill="#ffffff" stroke="transparent" points="497.5,-213.7 497.5,-232.7 531.5,-232.7 531.5,-213.7 497.5,-213.7"/>
<polygon fill="none" stroke="#000000" points="497.5,-213.7 497.5,-232.7 531.5,-232.7 531.5,-213.7 497.5,-213.7"/>
<text text-anchor="start" x="500.5" y="-219.8" font-family="Helvetica,sans-Serif" font-size="11.00" fill="#000000"> &#160;</text>
<polygon fill="#ffffff" stroke="transparent" points="531.5,-213.7 531.5,-232.7 580.5,-232.7 580.5,-213.7 531.5,-213.7"/>
<polygon fill="none" stroke="#000000" points="531.5,-213.7 531.5,-232.7 580.5,-232.7 580.5,-213.7 531.5,-213.7"/>
<text text-anchor="start" x="545.1105" y="-219.8" font-family="Helvetica,sans-Serif" font-size="11.00" fill="#000000">5 rows</text>
<polygon fill="#ffffff" stroke="transparent" points="580.5,-213.7 580.5,-232.7 612.5,-232.7 612.5,-213.7 580.5,-213.7"/>
<polygon fill="none" stroke="#000000" points="580.5,-213.7 580.5,-232.7 612.5,-232.7 612.5,-213.7 580.5,-213.7"/>
<text text-anchor="start" x="593.9053" y="-219.8" font-family="Helvetica,sans-Serif" font-size="11.00" fill="#000000">2 &gt;</text>
</a>
</g>
</g>
<!-- FormTable_SourceTable&#45;&gt;SourceTable -->
<g id="edge6" class="edge">
<title>FormTable_SourceTable:w&#45;&gt;SourceTable:e</title>
<path fill="none" stroke="#000000" d="M715.9134,-364.0714C701.0686,-354.0951 706.5735,-325.7952 687,-307.7 658.5957,-281.4409 651.1826,-262.7 612.5,-262.7"/>
<polygon fill="#000000" stroke="#000000" points="722.2529,-365.7043 729.102,-371.1862 726.1264,-366.7022 730,-367.7 730,-367.7 730,-367.7 726.1264,-366.7022 730.898,-364.2138 722.2529,-365.7043 722.2529,-365.7043"/>
<ellipse fill="none" stroke="#000000" cx="719.1541" cy="-364.9061" rx="3.2" ry="3.2"/>
</g>
<!-- replacements.csv -->
<g id="node7" class="node">
<title>replacements.csv</title>
<g id="a_node7"><a xlink:href="../../tables/replacements.csv.html" xlink:title="replacements.csv" target="_top">
<polygon fill="#ffffff" stroke="transparent" points="190,-482.2 190,-587.2 381,-587.2 381,-482.2 190,-482.2"/>
<polygon fill="#f5f5f5" stroke="transparent" points="190.5,-563.7 190.5,-586.7 381.5,-586.7 381.5,-563.7 190.5,-563.7"/>
<polygon fill="none" stroke="#000000" points="190.5,-563.7 190.5,-586.7 381.5,-586.7 381.5,-563.7 190.5,-563.7"/>
<text text-anchor="start" x="195.5" y="-572.8" font-family="Helvetica,sans-Serif" font-weight="bold" font-size="11.00" fill="#000000">replacements.csv</text>
<text text-anchor="start" x="346.5437" y="-571.8" font-family="Helvetica,sans-Serif" font-size="11.00" fill="#000000">[table]</text>
<polygon fill="none" stroke="#000000" points="190.5,-541.7 190.5,-563.7 381.5,-563.7 381.5,-541.7 190.5,-541.7"/>
<image xlink:href="../../images/primaryKeys.png" width="11px" height="12px" preserveAspectRatio="xMinYMin meet" x="195.5" y="-558.7"/>
<text text-anchor="start" x="210.5" y="-548.8" font-family="Helvetica,sans-Serif" font-size="11.00" fill="#000000">cldf_id</text>
<polygon fill="none" stroke="#000000" points="190.5,-519.7 190.5,-541.7 381.5,-541.7 381.5,-519.7 190.5,-519.7"/>
<image xlink:href="../../images/foreignKeys.png" width="11px" height="12px" preserveAspectRatio="xMinYMin meet" x="195.5" y="-536.7"/>
<text text-anchor="start" x="210.5" y="-526.8" font-family="Helvetica,sans-Serif" font-size="11.00" fill="#000000">cldf_parameterReference</text>
<polygon fill="none" stroke="#000000" points="190.5,-500.7 190.5,-519.7 381.5,-519.7 381.5,-500.7 190.5,-500.7"/>
<text text-anchor="start" x="193.5" y="-506.8" font-family="Helvetica,sans-Serif" font-size="11.00" fill="#000000">...</text>
<polygon fill="#ffffff" stroke="transparent" points="190.5,-481.7 190.5,-500.7 260.5,-500.7 260.5,-481.7 190.5,-481.7"/>
<polygon fill="none" stroke="#000000" points="190.5,-481.7 190.5,-500.7 260.5,-500.7 260.5,-481.7 190.5,-481.7"/>
<text text-anchor="start" x="193.5" y="-487.8" font-family="Helvetica,sans-Serif" font-size="11.00" fill="#000000">&lt; 1</text>
<polygon fill="#ffffff" stroke="transparent" points="260.5,-481.7 260.5,-500.7 335.5,-500.7 335.5,-481.7 260.5,-481.7"/>
<polygon fill="none" stroke="#000000" points="260.5,-481.7 260.5,-500.7 335.5,-500.7 335.5,-481.7 260.5,-481.7"/>
<text text-anchor="start" x="287.8807" y="-487.8" font-family="Helvetica,sans-Serif" font-size="11.00" fill="#000000">189 rows</text>
<polygon fill="#ffffff" stroke="transparent" points="335.5,-481.7 335.5,-500.7 381.5,-500.7 381.5,-481.7 335.5,-481.7"/>
<polygon fill="none" stroke="#000000" points="335.5,-481.7 335.5,-500.7 381.5,-500.7 381.5,-481.7 335.5,-481.7"/>
<text text-anchor="start" x="362.9053" y="-487.8" font-family="Helvetica,sans-Serif" font-size="11.00" fill="#000000">1 &gt;</text>
</a>
</g>
</g>
<!-- replacements.csv&#45;&gt;ParameterTable -->
<g id="edge7" class="edge">
<title>replacements.csv:w&#45;&gt;ParameterTable:e</title>
<path fill="none" stroke="#000000" d="M177.1064,-524.8309C139.4381,-484.4784 199.4394,-249.7 141.5,-249.7"/>
<polygon fill="#000000" stroke="#000000" points="183.1726,-527.4891 189.0551,-533.9973 186.8363,-529.0945 190.5,-530.7 190.5,-530.7 190.5,-530.7 186.8363,-529.0945 191.9449,-527.4027 183.1726,-527.4891 183.1726,-527.4891"/>
<ellipse fill="none" stroke="#000000" cx="180.2417" cy="-526.2047" rx="3.2" ry="3.2"/>
</g>
<!-- replacements.csv_LanguageTable -->
<g id="node8" class="node">
<title>replacements.csv_LanguageTable</title>
<g id="a_node8"><a xlink:href="../../tables/replacements.csv_LanguageTable.html" xlink:title="replacements.csv_LanguageTable" target="_top">
<polygon fill="#ffffff" stroke="transparent" points="430,-488.2 430,-593.2 679,-593.2 679,-488.2 430,-488.2"/>
<polygon fill="#f5f5f5" stroke="transparent" points="430.5,-569.7 430.5,-592.7 679.5,-592.7 679.5,-569.7 430.5,-569.7"/>
<polygon fill="none" stroke="#000000" points="430.5,-569.7 430.5,-592.7 679.5,-592.7 679.5,-569.7 430.5,-569.7"/>
<text text-anchor="start" x="435.5" y="-578.8" font-family="Helvetica,sans-Serif" font-weight="bold" font-size="11.00" fill="#000000">replacements.csv_LanguageTable</text>
<text text-anchor="start" x="644.5437" y="-577.8" font-family="Helvetica,sans-Serif" font-size="11.00" fill="#000000">[table]</text>
<polygon fill="none" stroke="#000000" points="430.5,-547.7 430.5,-569.7 679.5,-569.7 679.5,-547.7 430.5,-547.7"/>
<image xlink:href="../../images/foreignKeys.png" width="11px" height="12px" preserveAspectRatio="xMinYMin meet" x="435.5" y="-564.7"/>
<text text-anchor="start" x="450.5" y="-554.8" font-family="Helvetica,sans-Serif" font-size="11.00" fill="#000000">replacements.csv_cldf_id</text>
<polygon fill="none" stroke="#000000" points="430.5,-525.7 430.5,-547.7 679.5,-547.7 679.5,-525.7 430.5,-525.7"/>
<image xlink:href="../../images/foreignKeys.png" width="11px" height="12px" preserveAspectRatio="xMinYMin meet" x="435.5" y="-542.7"/>
<text text-anchor="start" x="450.5" y="-532.8" font-family="Helvetica,sans-Serif" font-size="11.00" fill="#000000">LanguageTable_cldf_id</text>
<polygon fill="none" stroke="#000000" points="430.5,-506.7 430.5,-525.7 679.5,-525.7 679.5,-506.7 430.5,-506.7"/>
<text text-anchor="start" x="433.5" y="-512.8" font-family="Helvetica,sans-Serif" font-size="11.00" fill="#000000">...</text>
<polygon fill="#ffffff" stroke="transparent" points="430.5,-487.7 430.5,-506.7 534.5,-506.7 534.5,-487.7 430.5,-487.7"/>
<polygon fill="none" stroke="#000000" points="430.5,-487.7 430.5,-506.7 534.5,-506.7 534.5,-487.7 430.5,-487.7"/>
<text text-anchor="start" x="433.5" y="-493.8" font-family="Helvetica,sans-Serif" font-size="11.00" fill="#000000">&lt; 2</text>
<polygon fill="#ffffff" stroke="transparent" points="534.5,-487.7 534.5,-506.7 625.5,-506.7 625.5,-487.7 534.5,-487.7"/>
<polygon fill="none" stroke="#000000" points="534.5,-487.7 534.5,-506.7 625.5,-506.7 625.5,-487.7 534.5,-487.7"/>
<text text-anchor="start" x="577.8807" y="-493.8" font-family="Helvetica,sans-Serif" font-size="11.00" fill="#000000">665 rows</text>
<polygon fill="#ffffff" stroke="transparent" points="625.5,-487.7 625.5,-506.7 679.5,-506.7 679.5,-487.7 625.5,-487.7"/>
<polygon fill="none" stroke="#000000" points="625.5,-487.7 625.5,-506.7 679.5,-506.7 679.5,-487.7 625.5,-487.7"/>
<text text-anchor="start" x="670.3862" y="-493.8" font-family="Helvetica,sans-Serif" font-size="11.00" fill="#000000"> &#160;</text>
</a>
</g>
</g>
<!-- replacements.csv_LanguageTable&#45;&gt;LanguageTable -->
<g id="edge8" class="edge">
<title>replacements.csv_LanguageTable:w&#45;&gt;LanguageTable:e</title>
<path fill="none" stroke="#000000" d="M416.2679,-533.9454C376.539,-515.9345 415.4561,-415.7 358.5,-415.7"/>
<polygon fill="#000000" stroke="#000000" points="422.6458,-535.1798 429.8159,-540.2344 426.5729,-535.9399 430.5,-536.7 430.5,-536.7 430.5,-536.7 426.5729,-535.9399 431.1841,-533.1656 422.6458,-535.1798 422.6458,-535.1798"/>
<ellipse fill="none" stroke="#000000" cx="419.5041" cy="-534.5717" rx="3.2" ry="3.2"/>
</g>
<!-- replacements.csv_LanguageTable&#45;&gt;replacements.csv -->
<g id="edge9" class="edge">
<title>replacements.csv_LanguageTable:w&#45;&gt;replacements.csv:e</title>
<path fill="none" stroke="#000000" d="M415.9463,-557.6549C404.6532,-555.9358 397.6125,-552.7 381.5,-552.7"/>
<polygon fill="#000000" stroke="#000000" points="422.5205,-558.1269 430.2421,-562.2908 426.5103,-558.4135 430.5,-558.7 430.5,-558.7 430.5,-558.7 426.5103,-558.4135 430.7579,-555.1092 422.5205,-558.1269 422.5205,-558.1269"/>
<ellipse fill="none" stroke="#000000" cx="419.3288" cy="-557.8977" rx="3.2" ry="3.2"/>
</g>
<!-- ValueTable -->
<g id="node10" class="node">
<title>ValueTable</title>
<g id="a_node10"><a xlink:href="../../tables/ValueTable.html" xlink:title="ValueTable" target="_top">
<polygon fill="#ffffff" stroke="transparent" points="459,-44.2 459,-193.2 650,-193.2 650,-44.2 459,-44.2"/>
<polygon fill="#f5f5f5" stroke="transparent" points="459.5,-169.7 459.5,-192.7 650.5,-192.7 650.5,-169.7 459.5,-169.7"/>
<polygon fill="none" stroke="#000000" points="459.5,-169.7 459.5,-192.7 650.5,-192.7 650.5,-169.7 459.5,-169.7"/>
<text text-anchor="start" x="464.5" y="-178.8" font-family="Helvetica,sans-Serif" font-weight="bold" font-size="11.00" fill="#000000">ValueTable</text>
<text text-anchor="start" x="615.5437" y="-177.8" font-family="Helvetica,sans-Serif" font-size="11.00" fill="#000000">[table]</text>
<polygon fill="none" stroke="#000000" points="459.5,-147.7 459.5,-169.7 650.5,-169.7 650.5,-147.7 459.5,-147.7"/>
<image xlink:href="../../images/primaryKeys.png" width="11px" height="12px" preserveAspectRatio="xMinYMin meet" x="464.5" y="-164.7"/>
<text text-anchor="start" x="479.5" y="-154.8" font-family="Helvetica,sans-Serif" font-size="11.00" fill="#000000">cldf_id</text>
<polygon fill="none" stroke="#000000" points="459.5,-125.7 459.5,-147.7 650.5,-147.7 650.5,-125.7 459.5,-125.7"/>
<image xlink:href="../../images/foreignKeys.png" width="11px" height="12px" preserveAspectRatio="xMinYMin meet" x="464.5" y="-142.7"/>
<text text-anchor="start" x="479.5" y="-132.8" font-family="Helvetica,sans-Serif" font-size="11.00" fill="#000000">cldf_languageReference</text>
<polygon fill="none" stroke="#000000" points="459.5,-103.7 459.5,-125.7 650.5,-125.7 650.5,-103.7 459.5,-103.7"/>
<image xlink:href="../../images/foreignKeys.png" width="11px" height="12px" preserveAspectRatio="xMinYMin meet" x="464.5" y="-120.7"/>
<text text-anchor="start" x="479.5" y="-110.8" font-family="Helvetica,sans-Serif" font-size="11.00" fill="#000000">cldf_parameterReference</text>
<polygon fill="none" stroke="#000000" points="459.5,-81.7 459.5,-103.7 650.5,-103.7 650.5,-81.7 459.5,-81.7"/>
<image xlink:href="../../images/foreignKeys.png" width="11px" height="12px" preserveAspectRatio="xMinYMin meet" x="464.5" y="-98.7"/>
<text text-anchor="start" x="479.5" y="-88.8" font-family="Helvetica,sans-Serif" font-size="11.00" fill="#000000">cldf_codeReference</text>
<polygon fill="none" stroke="#000000" points="459.5,-62.7 459.5,-81.7 650.5,-81.7 650.5,-62.7 459.5,-62.7"/>
<text text-anchor="start" x="462.5" y="-68.8" font-family="Helvetica,sans-Serif" font-size="11.00" fill="#000000">...</text>
<polygon fill="#ffffff" stroke="transparent" points="459.5,-43.7 459.5,-62.7 525.5,-62.7 525.5,-43.7 459.5,-43.7"/>
<polygon fill="none" stroke="#000000" points="459.5,-43.7 459.5,-62.7 525.5,-62.7 525.5,-43.7 459.5,-43.7"/>
<text text-anchor="start" x="462.5" y="-49.8" font-family="Helvetica,sans-Serif" font-size="11.00" fill="#000000">&lt; 3</text>
<polygon fill="#ffffff" stroke="transparent" points="525.5,-43.7 525.5,-62.7 606.5,-62.7 606.5,-43.7 525.5,-43.7"/>
<polygon fill="none" stroke="#000000" points="525.5,-43.7 525.5,-62.7 606.5,-62.7 606.5,-43.7 525.5,-43.7"/>
<text text-anchor="start" x="549.7089" y="-49.8" font-family="Helvetica,sans-Serif" font-size="11.00" fill="#000000">6,063 rows</text>
<polygon fill="#ffffff" stroke="transparent" points="606.5,-43.7 606.5,-62.7 650.5,-62.7 650.5,-43.7 606.5,-43.7"/>
<polygon fill="none" stroke="#000000" points="606.5,-43.7 606.5,-62.7 650.5,-62.7 650.5,-43.7 606.5,-43.7"/>
<text text-anchor="start" x="631.9053" y="-49.8" font-family="Helvetica,sans-Serif" font-size="11.00" fill="#000000">1 &gt;</text>
</a>
</g>
</g>
<!-- ValueTable&#45;&gt;CodeTable -->
<g id="edge10" class="edge">
<title>ValueTable:w&#45;&gt;CodeTable:e</title>
<path fill="none" stroke="#000000" d="M445.0882,-93.7009C421.2571,-97.2037 411.4973,-108.7 381.5,-108.7"/>
<polygon fill="#000000" stroke="#000000" points="451.5192,-93.2543 459.7494,-96.2913 455.5096,-92.9772 459.5,-92.7 459.5,-92.7 459.5,-92.7 455.5096,-92.9772 459.2506,-89.1087 451.5192,-93.2543 451.5192,-93.2543"/>
<ellipse fill="none" stroke="#000000" cx="448.3269" cy="-93.476" rx="3.2" ry="3.2"/>
</g>
<!-- ValueTable&#45;&gt;LanguageTable -->
<g id="edge11" class="edge">
<title>ValueTable:w&#45;&gt;LanguageTable:e</title>
<path fill="none" stroke="#000000" d="M445.0387,-138.006C340.1854,-158.5945 485.0948,-415.7 358.5,-415.7"/>
<polygon fill="#000000" stroke="#000000" points="451.5324,-137.4196 459.8238,-140.2854 455.5162,-137.0598 459.5,-136.7 459.5,-136.7 459.5,-136.7 455.5162,-137.0598 459.1762,-133.1146 451.5324,-137.4196 451.5324,-137.4196"/>
<ellipse fill="none" stroke="#000000" cx="448.3454" cy="-137.7074" rx="3.2" ry="3.2"/>
</g>
<!-- ValueTable&#45;&gt;ParameterTable -->
<g id="edge12" class="edge">
<title>ValueTable:w&#45;&gt;ParameterTable:e</title>
<path fill="none" stroke="#000000" d="M444.9473,-116.3609C422.3269,-122.1039 416.6136,-141.4395 389,-153.7 300.107,-193.1688 269.9256,-183.1208 182,-224.7 162.8772,-233.743 162.6532,-249.7 141.5,-249.7"/>
<polygon fill="#000000" stroke="#000000" points="451.5516,-115.6072 459.9082,-118.2768 455.5258,-115.1536 459.5,-114.7 459.5,-114.7 459.5,-114.7 455.5258,-115.1536 459.0918,-111.1232 451.5516,-115.6072 451.5516,-115.6072"/>
<ellipse fill="none" stroke="#000000" cx="448.3722" cy="-115.9701" rx="3.2" ry="3.2"/>
</g>
<!-- ValueTable_SourceTable -->
<g id="node11" class="node">
<title>ValueTable_SourceTable</title>
<g id="a_node11"><a xlink:href="../../tables/ValueTable_SourceTable.html" xlink:title="ValueTable_SourceTable" target="_top">
<polygon fill="#ffffff" stroke="transparent" points="728,-151.2 728,-256.2 914,-256.2 914,-151.2 728,-151.2"/>
<polygon fill="#f5f5f5" stroke="transparent" points="728,-232.7 728,-255.7 914,-255.7 914,-232.7 728,-232.7"/>
<polygon fill="none" stroke="#000000" points="728,-232.7 728,-255.7 914,-255.7 914,-232.7 728,-232.7"/>
<text text-anchor="start" x="733" y="-241.8" font-family="Helvetica,sans-Serif" font-weight="bold" font-size="11.00" fill="#000000">ValueTable_SourceTable</text>
<text text-anchor="start" x="879.0437" y="-240.8" font-family="Helvetica,sans-Serif" font-size="11.00" fill="#000000">[table]</text>
<polygon fill="none" stroke="#000000" points="728,-210.7 728,-232.7 914,-232.7 914,-210.7 728,-210.7"/>
<image xlink:href="../../images/foreignKeys.png" width="11px" height="12px" preserveAspectRatio="xMinYMin meet" x="733" y="-227.7"/>
<text text-anchor="start" x="748" y="-217.8" font-family="Helvetica,sans-Serif" font-size="11.00" fill="#000000">ValueTable_cldf_id</text>
<polygon fill="none" stroke="#000000" points="728,-188.7 728,-210.7 914,-210.7 914,-188.7 728,-188.7"/>
<image xlink:href="../../images/foreignKeys.png" width="11px" height="12px" preserveAspectRatio="xMinYMin meet" x="733" y="-205.7"/>
<text text-anchor="start" x="748" y="-195.8" font-family="Helvetica,sans-Serif" font-size="11.00" fill="#000000">SourceTable_id</text>
<polygon fill="none" stroke="#000000" points="728,-169.7 728,-188.7 914,-188.7 914,-169.7 728,-169.7"/>
<text text-anchor="start" x="731" y="-175.8" font-family="Helvetica,sans-Serif" font-size="11.00" fill="#000000">...</text>
<polygon fill="#ffffff" stroke="transparent" points="728,-150.7 728,-169.7 796,-169.7 796,-150.7 728,-150.7"/>
<polygon fill="none" stroke="#000000" points="728,-150.7 728,-169.7 796,-169.7 796,-150.7 728,-150.7"/>
<text text-anchor="start" x="731" y="-156.8" font-family="Helvetica,sans-Serif" font-size="11.00" fill="#000000">&lt; 2</text>
<polygon fill="#ffffff" stroke="transparent" points="796,-150.7 796,-169.7 878,-169.7 878,-150.7 796,-150.7"/>
<polygon fill="none" stroke="#000000" points="796,-150.7 796,-169.7 878,-169.7 878,-150.7 796,-150.7"/>
<text text-anchor="start" x="821.2089" y="-156.8" font-family="Helvetica,sans-Serif" font-size="11.00" fill="#000000">1,274 rows</text>
<polygon fill="#ffffff" stroke="transparent" points="878,-150.7 878,-169.7 914,-169.7 914,-150.7 878,-150.7"/>
<polygon fill="none" stroke="#000000" points="878,-150.7 878,-169.7 914,-169.7 914,-150.7 878,-150.7"/>
<text text-anchor="start" x="904.8862" y="-156.8" font-family="Helvetica,sans-Serif" font-size="11.00" fill="#000000"> &#160;</text>
</a>
</g>
</g>
<!-- ValueTable_SourceTable&#45;&gt;SourceTable -->
<g id="edge13" class="edge">
<title>ValueTable_SourceTable:w&#45;&gt;SourceTable:e</title>
<path fill="none" stroke="#000000" d="M713.6037,-201.1342C669.3031,-210.5118 665.7197,-262.7 612.5,-262.7"/>
<polygon fill="#000000" stroke="#000000" points="720.0394,-200.4931 728.3569,-203.2823 724.0197,-200.0966 728,-199.7 728,-199.7 728,-199.7 724.0197,-200.0966 727.6431,-196.1177 720.0394,-200.4931 720.0394,-200.4931"/>
<ellipse fill="none" stroke="#000000" cx="716.8552" cy="-200.8104" rx="3.2" ry="3.2"/>
</g>
<!-- ValueTable_SourceTable&#45;&gt;ValueTable -->
<g id="edge14" class="edge">
<title>ValueTable_SourceTable:w&#45;&gt;ValueTable:e</title>
<path fill="none" stroke="#000000" d="M713.746,-218.993C685.5605,-206.9344 689.3407,-158.7 650.5,-158.7"/>
<polygon fill="#000000" stroke="#000000" points="720.1405,-220.2073 727.3283,-225.2368 724.0702,-220.9537 728,-221.7 728,-221.7 728,-221.7 724.0702,-220.9537 728.6717,-218.1632 720.1405,-220.2073 720.1405,-220.2073"/>
<ellipse fill="none" stroke="#000000" cx="716.9967" cy="-219.6103" rx="3.2" ry="3.2"/>
</g>
</g>
</svg>

