<?xml version="1.0" encoding="UTF-8" standalone="no"?>
<!DOCTYPE svg PUBLIC "-//W3C//DTD SVG 1.1//EN"
 "http://www.w3.org/Graphics/SVG/1.1/DTD/svg11.dtd">
<!-- Generated by graphviz version 2.40.1 (20161225.0304)
 -->
<!-- Title: compactRelationshipsDiagram Pages: 1 -->
<svg width="695pt" height="561pt"
 viewBox="0.00 0.00 695.00 561.20" xmlns="http://www.w3.org/2000/svg" xmlns:xlink="http://www.w3.org/1999/xlink">
<g id="graph0" class="graph" transform="scale(1 1) rotate(0) translate(4 557.2)">
<title>compactRelationshipsDiagram</title>
<polygon fill="#ffffff" stroke="transparent" points="-4,4 -4,-557.2 691,-557.2 691,4 -4,4"/>
<text text-anchor="middle" x="72.4936" y="-7.3" font-family="Helvetica,sans-Serif" font-size="11.00" fill="#000000">Generated by SchemaSpy</text>
<!-- CodeTable -->
<g id="node1" class="node">
<title>CodeTable</title>
<g id="a_node1"><a xlink:href="../../tables/CodeTable.html" xlink:title="CodeTable" target="_top">
<polygon fill="#ffffff" stroke="transparent" points="190,-38.2 190,-143.2 381,-143.2 381,-38.2 190,-38.2"/>
<polygon fill="#f5f5f5" stroke="transparent" points="190.5,-119.7 190.5,-142.7 381.5,-142.7 381.5,-119.7 190.5,-119.7"/>
<polygon fill="none" stroke="#000000" points="190.5,-119.7 190.5,-142.7 381.5,-142.7 381.5,-119.7 190.5,-119.7"/>
<text text-anchor="start" x="195.5" y="-128.8" font-family="Helvetica,sans-Serif" font-weight="bold" font-size="11.00" fill="#000000">CodeTable</text>
<text text-anchor="start" x="346.5437" y="-127.8" font-family="Helvetica,sans-Serif" font-size="11.00" fill="#000000">[table]</text>
<polygon fill="none" stroke="#000000" points="190.5,-97.7 190.5,-119.7 381.5,-119.7 381.5,-97.7 190.5,-97.7"/>
<image xlink:href="../../images/primaryKeys.png" width="11px" height="12px" preserveAspectRatio="xMinYMin meet" x="195.5" y="-114.7"/>
<text text-anchor="start" x="210.5" y="-104.8" font-family="Helvetica,sans-Serif" font-size="11.00" fill="#000000">cldf_id</text>
<polygon fill="none" stroke="#000000" points="190.5,-75.7 190.5,-97.7 381.5,-97.7 381.5,-75.7 190.5,-75.7"/>
<image xlink:href="../../images/foreignKeys.png" width="11px" height="12px" preserveAspectRatio="xMinYMin meet" x="195.5" y="-92.7"/>
<text text-anchor="start" x="210.5" y="-82.8" font-family="Helvetica,sans-Serif" font-size="11.00" fill="#000000">cldf_parameterReference</text>
<polygon fill="none" stroke="#000000" points="190.5,-56.7 190.5,-75.7 381.5,-75.7 381.5,-56.7 190.5,-56.7"/>
<text text-anchor="start" x="193.5" y="-62.8" font-family="Helvetica,sans-Serif" font-size="11.00" fill="#000000">...</text>
<polygon fill="#ffffff" stroke="transparent" points="190.5,-37.7 190.5,-56.7 263.5,-56.7 263.5,-37.7 190.5,-37.7"/>
<polygon fill="none" stroke="#000000" points="190.5,-37.7 190.5,-56.7 263.5,-56.7 263.5,-37.7 190.5,-37.7"/>
<text text-anchor="start" x="193.5" y="-43.8" font-family="Helvetica,sans-Serif" font-size="11.00" fill="#000000">&lt; 1</text>
<polygon fill="#ffffff" stroke="transparent" points="263.5,-37.7 263.5,-56.7 333.5,-56.7 333.5,-37.7 263.5,-37.7"/>
<polygon fill="none" stroke="#000000" points="263.5,-37.7 263.5,-56.7 333.5,-56.7 333.5,-37.7 263.5,-37.7"/>
<text text-anchor="start" x="291.9956" y="-43.8" font-family="Helvetica,sans-Serif" font-size="11.00" fill="#000000">25 rows</text>
<polygon fill="#ffffff" stroke="transparent" points="333.5,-37.7 333.5,-56.7 381.5,-56.7 381.5,-37.7 333.5,-37.7"/>
<polygon fill="none" stroke="#000000" points="333.5,-37.7 333.5,-56.7 381.5,-56.7 381.5,-37.7 333.5,-37.7"/>
<text text-anchor="start" x="362.9053" y="-43.8" font-family="Helvetica,sans-Serif" font-size="11.00" fill="#000000">1 &gt;</text>
</a>
</g>
</g>
<!-- ParameterTable -->
<g id="node5" class="node">
<title>ParameterTable</title>
<g id="a_node5"><a xlink:href="../../tables/ParameterTable.html" xlink:title="ParameterTable" target="_top">
<polygon fill="#ffffff" stroke="transparent" points="8,-119.2 8,-202.2 141,-202.2 141,-119.2 8,-119.2"/>
<polygon fill="#f5f5f5" stroke="transparent" points="8.5,-178.7 8.5,-201.7 141.5,-201.7 141.5,-178.7 8.5,-178.7"/>
<polygon fill="none" stroke="#000000" points="8.5,-178.7 8.5,-201.7 141.5,-201.7 141.5,-178.7 8.5,-178.7"/>
<text text-anchor="start" x="13.5" y="-187.8" font-family="Helvetica,sans-Serif" font-weight="bold" font-size="11.00" fill="#000000">ParameterTable</text>
<text text-anchor="start" x="106.5437" y="-186.8" font-family="Helvetica,sans-Serif" font-size="11.00" fill="#000000">[table]</text>
<polygon fill="none" stroke="#000000" points="8.5,-156.7 8.5,-178.7 141.5,-178.7 141.5,-156.7 8.5,-156.7"/>
<image xlink:href="../../images/primaryKeys.png" width="11px" height="12px" preserveAspectRatio="xMinYMin meet" x="13.5" y="-173.7"/>
<text text-anchor="start" x="28.5" y="-163.8" font-family="Helvetica,sans-Serif" font-size="11.00" fill="#000000">cldf_id</text>
<polygon fill="none" stroke="#000000" points="8.5,-137.7 8.5,-156.7 141.5,-156.7 141.5,-137.7 8.5,-137.7"/>
<text text-anchor="start" x="11.5" y="-143.8" font-family="Helvetica,sans-Serif" font-size="11.00" fill="#000000">...</text>
<polygon fill="#ffffff" stroke="transparent" points="8.5,-118.7 8.5,-137.7 51.5,-137.7 51.5,-118.7 8.5,-118.7"/>
<polygon fill="none" stroke="#000000" points="8.5,-118.7 8.5,-137.7 51.5,-137.7 51.5,-118.7 8.5,-118.7"/>
<text text-anchor="start" x="11.5" y="-124.8" font-family="Helvetica,sans-Serif" font-size="11.00" fill="#000000"> &#160;</text>
<polygon fill="#ffffff" stroke="transparent" points="51.5,-118.7 51.5,-137.7 104.5,-137.7 104.5,-118.7 51.5,-118.7"/>
<polygon fill="none" stroke="#000000" points="51.5,-118.7 51.5,-137.7 104.5,-137.7 104.5,-118.7 51.5,-118.7"/>
<text text-anchor="start" x="69.1105" y="-124.8" font-family="Helvetica,sans-Serif" font-size="11.00" fill="#000000">8 rows</text>
<polygon fill="#ffffff" stroke="transparent" points="104.5,-118.7 104.5,-137.7 141.5,-137.7 141.5,-118.7 104.5,-118.7"/>
<polygon fill="none" stroke="#000000" points="104.5,-118.7 104.5,-137.7 141.5,-137.7 141.5,-118.7 104.5,-118.7"/>
<text text-anchor="start" x="122.9053" y="-124.8" font-family="Helvetica,sans-Serif" font-size="11.00" fill="#000000">3 &gt;</text>
</a>
</g>
</g>
<!-- CodeTable&#45;&gt;ParameterTable -->
<g id="edge1" class="edge">
<title>CodeTable:w&#45;&gt;ParameterTable:e</title>
<path fill="none" stroke="#000000" d="M176.6299,-91.287C156.9726,-108.422 177.4935,-167.7 141.5,-167.7"/>
<polygon fill="#000000" stroke="#000000" points="182.9046,-89.2119 191.6304,-90.1179 186.7023,-87.956 190.5,-86.7 190.5,-86.7 190.5,-86.7 186.7023,-87.956 189.3696,-83.2821 182.9046,-89.2119 182.9046,-89.2119"/>
<ellipse fill="none" stroke="#000000" cx="179.8664" cy="-90.2167" rx="3.2" ry="3.2"/>
</g>
<!-- ContributionTable -->
<g id="node2" class="node">
<title>ContributionTable</title>
<g id="a_node2"><a xlink:href="../../tables/ContributionTable.html" xlink:title="ContributionTable" target="_top">
<polygon fill="#ffffff" stroke="transparent" points="214,-400.2 214,-483.2 357,-483.2 357,-400.2 214,-400.2"/>
<polygon fill="#f5f5f5" stroke="transparent" points="214.5,-459.7 214.5,-482.7 357.5,-482.7 357.5,-459.7 214.5,-459.7"/>
<polygon fill="none" stroke="#000000" points="214.5,-459.7 214.5,-482.7 357.5,-482.7 357.5,-459.7 214.5,-459.7"/>
<text text-anchor="start" x="219.5" y="-468.8" font-family="Helvetica,sans-Serif" font-weight="bold" font-size="11.00" fill="#000000">ContributionTable</text>
<text text-anchor="start" x="322.5437" y="-467.8" font-family="Helvetica,sans-Serif" font-size="11.00" fill="#000000">[table]</text>
<polygon fill="none" stroke="#000000" points="214.5,-437.7 214.5,-459.7 357.5,-459.7 357.5,-437.7 214.5,-437.7"/>
<image xlink:href="../../images/primaryKeys.png" width="11px" height="12px" preserveAspectRatio="xMinYMin meet" x="219.5" y="-454.7"/>
<text text-anchor="start" x="234.5" y="-444.8" font-family="Helvetica,sans-Serif" font-size="11.00" fill="#000000">cldf_id</text>
<polygon fill="none" stroke="#000000" points="214.5,-418.7 214.5,-437.7 357.5,-437.7 357.5,-418.7 214.5,-418.7"/>
<text text-anchor="start" x="217.5" y="-424.8" font-family="Helvetica,sans-Serif" font-size="11.00" fill="#000000">...</text>
<polygon fill="#ffffff" stroke="transparent" points="214.5,-399.7 214.5,-418.7 262.5,-418.7 262.5,-399.7 214.5,-399.7"/>
<polygon fill="none" stroke="#000000" points="214.5,-399.7 214.5,-418.7 262.5,-418.7 262.5,-399.7 214.5,-399.7"/>
<text text-anchor="start" x="217.5" y="-405.8" font-family="Helvetica,sans-Serif" font-size="11.00" fill="#000000"> &#160;</text>
<polygon fill="#ffffff" stroke="transparent" points="262.5,-399.7 262.5,-418.7 318.5,-418.7 318.5,-399.7 262.5,-399.7"/>
<polygon fill="none" stroke="#000000" points="262.5,-399.7 262.5,-418.7 318.5,-418.7 318.5,-399.7 262.5,-399.7"/>
<text text-anchor="start" x="283.1105" y="-405.8" font-family="Helvetica,sans-Serif" font-size="11.00" fill="#000000">4 rows</text>
<polygon fill="#ffffff" stroke="transparent" points="318.5,-399.7 318.5,-418.7 357.5,-418.7 357.5,-399.7 318.5,-399.7"/>
<polygon fill="none" stroke="#000000" points="318.5,-399.7 318.5,-418.7 357.5,-418.7 357.5,-399.7 318.5,-399.7"/>
<text text-anchor="start" x="338.9053" y="-405.8" font-family="Helvetica,sans-Serif" font-size="11.00" fill="#000000">1 &gt;</text>
</a>
</g>
</g>
<!-- FormTable -->
<g id="node3" class="node">
<title>FormTable</title>
<g id="a_node3"><a xlink:href="../../tables/FormTable.html" xlink:title="FormTable" target="_top">
<polygon fill="#ffffff" stroke="transparent" points="452.5,-400.2 452.5,-549.2 656.5,-549.2 656.5,-400.2 452.5,-400.2"/>
<polygon fill="#f5f5f5" stroke="transparent" points="452.5,-525.7 452.5,-548.7 656.5,-548.7 656.5,-525.7 452.5,-525.7"/>
<polygon fill="none" stroke="#000000" points="452.5,-525.7 452.5,-548.7 656.5,-548.7 656.5,-525.7 452.5,-525.7"/>
<text text-anchor="start" x="457.5" y="-534.8" font-family="Helvetica,sans-Serif" font-weight="bold" font-size="11.00" fill="#000000">FormTable</text>
<text text-anchor="start" x="621.5437" y="-533.8" font-family="Helvetica,sans-Serif" font-size="11.00" fill="#000000">[table]</text>
<polygon fill="none" stroke="#000000" points="452.5,-503.7 452.5,-525.7 656.5,-525.7 656.5,-503.7 452.5,-503.7"/>
<image xlink:href="../../images/primaryKeys.png" width="11px" height="12px" preserveAspectRatio="xMinYMin meet" x="457.5" y="-520.7"/>
<text text-anchor="start" x="472.5" y="-510.8" font-family="Helvetica,sans-Serif" font-size="11.00" fill="#000000">cldf_id</text>
<polygon fill="none" stroke="#000000" points="452.5,-481.7 452.5,-503.7 656.5,-503.7 656.5,-481.7 452.5,-481.7"/>
<image xlink:href="../../images/foreignKeys.png" width="11px" height="12px" preserveAspectRatio="xMinYMin meet" x="457.5" y="-498.7"/>
<text text-anchor="start" x="472.5" y="-488.8" font-family="Helvetica,sans-Serif" font-size="11.00" fill="#000000">cldf_languageReference</text>
<polygon fill="none" stroke="#000000" points="452.5,-459.7 452.5,-481.7 656.5,-481.7 656.5,-459.7 452.5,-459.7"/>
<image xlink:href="../../images/foreignKeys.png" width="11px" height="12px" preserveAspectRatio="xMinYMin meet" x="457.5" y="-476.7"/>
<text text-anchor="start" x="472.5" y="-466.8" font-family="Helvetica,sans-Serif" font-size="11.00" fill="#000000">cldf_parameterReference</text>
<polygon fill="none" stroke="#000000" points="452.5,-437.7 452.5,-459.7 656.5,-459.7 656.5,-437.7 452.5,-437.7"/>
<image xlink:href="../../images/foreignKeys.png" width="11px" height="12px" preserveAspectRatio="xMinYMin meet" x="457.5" y="-454.7"/>
<text text-anchor="start" x="472.5" y="-444.8" font-family="Helvetica,sans-Serif" font-size="11.00" fill="#000000">cldf_contributionReference</text>
<polygon fill="none" stroke="#000000" points="452.5,-418.7 452.5,-437.7 656.5,-437.7 656.5,-418.7 452.5,-418.7"/>
<text text-anchor="start" x="455.5" y="-424.8" font-family="Helvetica,sans-Serif" font-size="11.00" fill="#000000">...</text>
<polygon fill="#ffffff" stroke="transparent" points="452.5,-399.7 452.5,-418.7 529.5,-418.7 529.5,-399.7 452.5,-399.7"/>
<polygon fill="none" stroke="#000000" points="452.5,-399.7 452.5,-418.7 529.5,-418.7 529.5,-399.7 452.5,-399.7"/>
<text text-anchor="start" x="455.5" y="-405.8" font-family="Helvetica,sans-Serif" font-size="11.00" fill="#000000">&lt; 3</text>
<polygon fill="#ffffff" stroke="transparent" points="529.5,-399.7 529.5,-418.7 616.5,-418.7 616.5,-399.7 529.5,-399.7"/>
<polygon fill="none" stroke="#000000" points="529.5,-399.7 529.5,-418.7 616.5,-418.7 616.5,-399.7 529.5,-399.7"/>
<text text-anchor="start" x="559.7089" y="-405.8" font-family="Helvetica,sans-Serif" font-size="11.00" fill="#000000">2,023 rows</text>
<polygon fill="#ffffff" stroke="transparent" points="616.5,-399.7 616.5,-418.7 656.5,-418.7 656.5,-399.7 616.5,-399.7"/>
<polygon fill="none" stroke="#000000" points="616.5,-399.7 616.5,-418.7 656.5,-418.7 656.5,-399.7 616.5,-399.7"/>
<text text-anchor="start" x="647.3862" y="-405.8" font-family="Helvetica,sans-Serif" font-size="11.00" fill="#000000"> &#160;</text>
</a>
</g>
</g>
<!-- FormTable&#45;&gt;ContributionTable -->
<g id="edge2" class="edge">
<title>FormTable:w&#45;&gt;ContributionTable:e</title>
<path fill="none" stroke="#000000" d="M438.0273,-448.7C407.1441,-448.7 394.4444,-448.7 357.5,-448.7"/>
<polygon fill="#000000" stroke="#000000" points="444.5,-448.7001 452.5,-452.3 448.5,-448.7 452.5,-448.7 452.5,-448.7 452.5,-448.7 448.5,-448.7 452.5,-445.1 444.5,-448.7001 444.5,-448.7001"/>
<ellipse fill="none" stroke="#000000" cx="441.3" cy="-448.7001" rx="3.2" ry="3.2"/>
</g>
<!-- LanguageTable -->
<g id="node4" class="node">
<title>LanguageTable</title>
<g id="a_node4"><a xlink:href="../../tables/LanguageTable.html" xlink:title="LanguageTable" target="_top">
<polygon fill="#ffffff" stroke="transparent" points="213,-192.2 213,-275.2 358,-275.2 358,-192.2 213,-192.2"/>
<polygon fill="#f5f5f5" stroke="transparent" points="213.5,-251.7 213.5,-274.7 358.5,-274.7 358.5,-251.7 213.5,-251.7"/>
<polygon fill="none" stroke="#000000" points="213.5,-251.7 213.5,-274.7 358.5,-274.7 358.5,-251.7 213.5,-251.7"/>
<text text-anchor="start" x="218.5" y="-260.8" font-family="Helvetica,sans-Serif" font-weight="bold" font-size="11.00" fill="#000000">LanguageTable</text>
<text text-anchor="start" x="323.5437" y="-259.8" font-family="Helvetica,sans-Serif" font-size="11.00" fill="#000000">[table]</text>
<polygon fill="none" stroke="#000000" points="213.5,-229.7 213.5,-251.7 358.5,-251.7 358.5,-229.7 213.5,-229.7"/>
<image xlink:href="../../images/primaryKeys.png" width="11px" height="12px" preserveAspectRatio="xMinYMin meet" x="218.5" y="-246.7"/>
<text text-anchor="start" x="233.5" y="-236.8" font-family="Helvetica,sans-Serif" font-size="11.00" fill="#000000">cldf_id</text>
<polygon fill="none" stroke="#000000" points="213.5,-210.7 213.5,-229.7 358.5,-229.7 358.5,-210.7 213.5,-210.7"/>
<text text-anchor="start" x="216.5" y="-216.8" font-family="Helvetica,sans-Serif" font-size="11.00" fill="#000000">...</text>
<polygon fill="#ffffff" stroke="transparent" points="213.5,-191.7 213.5,-210.7 251.5,-210.7 251.5,-191.7 213.5,-191.7"/>
<polygon fill="none" stroke="#000000" points="213.5,-191.7 213.5,-210.7 251.5,-210.7 251.5,-191.7 213.5,-191.7"/>
<text text-anchor="start" x="216.5" y="-197.8" font-family="Helvetica,sans-Serif" font-size="11.00" fill="#000000"> &#160;</text>
<polygon fill="#ffffff" stroke="transparent" points="251.5,-191.7 251.5,-210.7 323.5,-210.7 323.5,-191.7 251.5,-191.7"/>
<polygon fill="none" stroke="#000000" points="251.5,-191.7 251.5,-210.7 323.5,-210.7 323.5,-191.7 251.5,-191.7"/>
<text text-anchor="start" x="266.7089" y="-197.8" font-family="Helvetica,sans-Serif" font-size="11.00" fill="#000000">1,274 rows</text>
<polygon fill="#ffffff" stroke="transparent" points="323.5,-191.7 323.5,-210.7 358.5,-210.7 358.5,-191.7 323.5,-191.7"/>
<polygon fill="none" stroke="#000000" points="323.5,-191.7 323.5,-210.7 358.5,-210.7 358.5,-191.7 323.5,-191.7"/>
<text text-anchor="start" x="339.9053" y="-197.8" font-family="Helvetica,sans-Serif" font-size="11.00" fill="#000000">3 &gt;</text>
</a>
</g>
</g>
<!-- FormTable&#45;&gt;LanguageTable -->
<g id="edge3" class="edge">
<title>FormTable:w&#45;&gt;LanguageTable:e</title>
<path fill="none" stroke="#000000" d="M437.9443,-491.2201C345.462,-470.5679 472.6683,-240.7 358.5,-240.7"/>
<polygon fill="#000000" stroke="#000000" points="444.541,-491.8907 452.1358,-496.2815 448.5205,-492.2954 452.5,-492.7 452.5,-492.7 452.5,-492.7 448.5205,-492.2954 452.8642,-489.1185 444.541,-491.8907 444.541,-491.8907"/>
<ellipse fill="none" stroke="#000000" cx="441.3574" cy="-491.567" rx="3.2" ry="3.2"/>
</g>
<!-- FormTable&#45;&gt;ParameterTable -->
<g id="edge4" class="edge">
<title>FormTable:w&#45;&gt;ParameterTable:e</title>
<path fill="none" stroke="#000000" d="M438.0271,-472.3779C420.1123,-476.9353 413.0212,-489.4837 389,-493.7 298.3853,-509.605 250.9474,-554.6119 182,-493.7 127.2907,-445.3669 214.5014,-167.7 141.5,-167.7"/>
<polygon fill="#000000" stroke="#000000" points="444.5532,-471.6213 452.9146,-474.276 448.5266,-471.1607 452.5,-470.7 452.5,-470.7 452.5,-470.7 448.5266,-471.1607 452.0854,-467.124 444.5532,-471.6213 444.5532,-471.6213"/>
<ellipse fill="none" stroke="#000000" cx="441.3745" cy="-471.9899" rx="3.2" ry="3.2"/>
</g>
<!-- replacements.csv -->
<g id="node6" class="node">
<title>replacements.csv</title>
<g id="a_node6"><a xlink:href="../../tables/replacements.csv.html" xlink:title="replacements.csv" target="_top">
<polygon fill="#ffffff" stroke="transparent" points="207.5,-296.2 207.5,-379.2 363.5,-379.2 363.5,-296.2 207.5,-296.2"/>
<polygon fill="#f5f5f5" stroke="transparent" points="207.5,-355.7 207.5,-378.7 363.5,-378.7 363.5,-355.7 207.5,-355.7"/>
<polygon fill="none" stroke="#000000" points="207.5,-355.7 207.5,-378.7 363.5,-378.7 363.5,-355.7 207.5,-355.7"/>
<text text-anchor="start" x="212.5" y="-364.8" font-family="Helvetica,sans-Serif" font-weight="bold" font-size="11.00" fill="#000000">replacements.csv</text>
<text text-anchor="start" x="328.5437" y="-363.8" font-family="Helvetica,sans-Serif" font-size="11.00" fill="#000000">[table]</text>
<polygon fill="none" stroke="#000000" points="207.5,-333.7 207.5,-355.7 363.5,-355.7 363.5,-333.7 207.5,-333.7"/>
<image xlink:href="../../images/primaryKeys.png" width="11px" height="12px" preserveAspectRatio="xMinYMin meet" x="212.5" y="-350.7"/>
<text text-anchor="start" x="227.5" y="-340.8" font-family="Helvetica,sans-Serif" font-size="11.00" fill="#000000">cldf_id</text>
<polygon fill="none" stroke="#000000" points="207.5,-314.7 207.5,-333.7 363.5,-333.7 363.5,-314.7 207.5,-314.7"/>
<text text-anchor="start" x="210.5" y="-320.8" font-family="Helvetica,sans-Serif" font-size="11.00" fill="#000000">...</text>
<polygon fill="#ffffff" stroke="transparent" points="207.5,-295.7 207.5,-314.7 258.5,-314.7 258.5,-295.7 207.5,-295.7"/>
<polygon fill="none" stroke="#000000" points="207.5,-295.7 207.5,-314.7 258.5,-314.7 258.5,-295.7 207.5,-295.7"/>
<text text-anchor="start" x="210.5" y="-301.8" font-family="Helvetica,sans-Serif" font-size="11.00" fill="#000000"> &#160;</text>
<polygon fill="#ffffff" stroke="transparent" points="258.5,-295.7 258.5,-314.7 322.5,-314.7 322.5,-295.7 258.5,-295.7"/>
<polygon fill="none" stroke="#000000" points="258.5,-295.7 258.5,-314.7 322.5,-314.7 322.5,-295.7 258.5,-295.7"/>
<text text-anchor="start" x="280.9956" y="-301.8" font-family="Helvetica,sans-Serif" font-size="11.00" fill="#000000">54 rows</text>
<polygon fill="#ffffff" stroke="transparent" points="322.5,-295.7 322.5,-314.7 363.5,-314.7 363.5,-295.7 322.5,-295.7"/>
<polygon fill="none" stroke="#000000" points="322.5,-295.7 322.5,-314.7 363.5,-314.7 363.5,-295.7 322.5,-295.7"/>
<text text-anchor="start" x="344.9053" y="-301.8" font-family="Helvetica,sans-Serif" font-size="11.00" fill="#000000">1 &gt;</text>
</a>
</g>
</g>
<!-- replacements.csv_LanguageTable -->
<g id="node7" class="node">
<title>replacements.csv_LanguageTable</title>
<g id="a_node7"><a xlink:href="../../tables/replacements.csv_LanguageTable.html" xlink:title="replacements.csv_LanguageTable" target="_top">
<polygon fill="#ffffff" stroke="transparent" points="430,-271.2 430,-376.2 679,-376.2 679,-271.2 430,-271.2"/>
<polygon fill="#f5f5f5" stroke="transparent" points="430.5,-352.7 430.5,-375.7 679.5,-375.7 679.5,-352.7 430.5,-352.7"/>
<polygon fill="none" stroke="#000000" points="430.5,-352.7 430.5,-375.7 679.5,-375.7 679.5,-352.7 430.5,-352.7"/>
<text text-anchor="start" x="435.5" y="-361.8" font-family="Helvetica,sans-Serif" font-weight="bold" font-size="11.00" fill="#000000">replacements.csv_LanguageTable</text>
<text text-anchor="start" x="644.5437" y="-360.8" font-family="Helvetica,sans-Serif" font-size="11.00" fill="#000000">[table]</text>
<polygon fill="none" stroke="#000000" points="430.5,-330.7 430.5,-352.7 679.5,-352.7 679.5,-330.7 430.5,-330.7"/>
<image xlink:href="../../images/foreignKeys.png" width="11px" height="12px" preserveAspectRatio="xMinYMin meet" x="435.5" y="-347.7"/>
<text text-anchor="start" x="450.5" y="-337.8" font-family="Helvetica,sans-Serif" font-size="11.00" fill="#000000">replacements.csv_cldf_id</text>
<polygon fill="none" stroke="#000000" points="430.5,-308.7 430.5,-330.7 679.5,-330.7 679.5,-308.7 430.5,-308.7"/>
<image xlink:href="../../images/foreignKeys.png" width="11px" height="12px" preserveAspectRatio="xMinYMin meet" x="435.5" y="-325.7"/>
<text text-anchor="start" x="450.5" y="-315.8" font-family="Helvetica,sans-Serif" font-size="11.00" fill="#000000">LanguageTable_cldf_id</text>
<polygon fill="none" stroke="#000000" points="430.5,-289.7 430.5,-308.7 679.5,-308.7 679.5,-289.7 430.5,-289.7"/>
<text text-anchor="start" x="433.5" y="-295.8" font-family="Helvetica,sans-Serif" font-size="11.00" fill="#000000">...</text>
<polygon fill="#ffffff" stroke="transparent" points="430.5,-270.7 430.5,-289.7 537.5,-289.7 537.5,-270.7 430.5,-270.7"/>
<polygon fill="none" stroke="#000000" points="430.5,-270.7 430.5,-289.7 537.5,-289.7 537.5,-270.7 430.5,-270.7"/>
<text text-anchor="start" x="433.5" y="-276.8" font-family="Helvetica,sans-Serif" font-size="11.00" fill="#000000">&lt; 2</text>
<polygon fill="#ffffff" stroke="transparent" points="537.5,-270.7 537.5,-289.7 624.5,-289.7 624.5,-270.7 537.5,-270.7"/>
<polygon fill="none" stroke="#000000" points="537.5,-270.7 537.5,-289.7 624.5,-289.7 624.5,-270.7 537.5,-270.7"/>
<text text-anchor="start" x="582.9956" y="-276.8" font-family="Helvetica,sans-Serif" font-size="11.00" fill="#000000">85 rows</text>
<polygon fill="#ffffff" stroke="transparent" points="624.5,-270.7 624.5,-289.7 679.5,-289.7 679.5,-270.7 624.5,-270.7"/>
<polygon fill="none" stroke="#000000" points="624.5,-270.7 624.5,-289.7 679.5,-289.7 679.5,-270.7 624.5,-270.7"/>
<text text-anchor="start" x="670.3862" y="-276.8" font-family="Helvetica,sans-Serif" font-size="11.00" fill="#000000"> &#160;</text>
</a>
</g>
</g>
<!-- replacements.csv_LanguageTable&#45;&gt;LanguageTable -->
<g id="edge5" class="edge">
<title>replacements.csv_LanguageTable:w&#45;&gt;LanguageTable:e</title>
<path fill="none" stroke="#000000" d="M416.0938,-316.5053C387.5333,-301.7256 400.253,-240.7 358.5,-240.7"/>
<polygon fill="#000000" stroke="#000000" points="422.6897,-317.9679 429.7206,-323.2146 426.5949,-318.834 430.5,-319.7 430.5,-319.7 430.5,-319.7 426.5949,-318.834 431.2794,-316.1854 422.6897,-317.9679 422.6897,-317.9679"/>
<ellipse fill="none" stroke="#000000" cx="419.5656" cy="-317.2751" rx="3.2" ry="3.2"/>
</g>
<!-- replacements.csv_LanguageTable&#45;&gt;replacements.csv -->
<g id="edge6" class="edge">
<title>replacements.csv_LanguageTable:w&#45;&gt;replacements.csv:e</title>
<path fill="none" stroke="#000000" d="M416.0724,-341.9662C397.225,-342.7004 387.8351,-344.7 363.5,-344.7"/>
<polygon fill="#000000" stroke="#000000" points="422.5014,-341.8477 430.5664,-345.2994 426.5007,-341.7738 430.5,-341.7 430.5,-341.7 430.5,-341.7 426.5007,-341.7738 430.4336,-338.1006 422.5014,-341.8477 422.5014,-341.8477"/>
<ellipse fill="none" stroke="#000000" cx="419.3019" cy="-341.9067" rx="3.2" ry="3.2"/>
</g>
<!-- ValueTable -->
<g id="node8" class="node">
<title>ValueTable</title>
<g id="a_node8"><a xlink:href="../../tables/ValueTable.html" xlink:title="ValueTable" target="_top">
<polygon fill="#ffffff" stroke="transparent" points="459,-97.2 459,-246.2 650,-246.2 650,-97.2 459,-97.2"/>
<polygon fill="#f5f5f5" stroke="transparent" points="459.5,-222.7 459.5,-245.7 650.5,-245.7 650.5,-222.7 459.5,-222.7"/>
<polygon fill="none" stroke="#000000" points="459.5,-222.7 459.5,-245.7 650.5,-245.7 650.5,-222.7 459.5,-222.7"/>
<text text-anchor="start" x="464.5" y="-231.8" font-family="Helvetica,sans-Serif" font-weight="bold" font-size="11.00" fill="#000000">ValueTable</text>
<text text-anchor="start" x="615.5437" y="-230.8" font-family="Helvetica,sans-Serif" font-size="11.00" fill="#000000">[table]</text>
<polygon fill="none" stroke="#000000" points="459.5,-200.7 459.5,-222.7 650.5,-222.7 650.5,-200.7 459.5,-200.7"/>
<image xlink:href="../../images/primaryKeys.png" width="11px" height="12px" preserveAspectRatio="xMinYMin meet" x="464.5" y="-217.7"/>
<text text-anchor="start" x="479.5" y="-207.8" font-family="Helvetica,sans-Serif" font-size="11.00" fill="#000000">cldf_id</text>
<polygon fill="none" stroke="#000000" points="459.5,-178.7 459.5,-200.7 650.5,-200.7 650.5,-178.7 459.5,-178.7"/>
<image xlink:href="../../images/foreignKeys.png" width="11px" height="12px" preserveAspectRatio="xMinYMin meet" x="464.5" y="-195.7"/>
<text text-anchor="start" x="479.5" y="-185.8" font-family="Helvetica,sans-Serif" font-size="11.00" fill="#000000">cldf_languageReference</text>
<polygon fill="none" stroke="#000000" points="459.5,-156.7 459.5,-178.7 650.5,-178.7 650.5,-156.7 459.5,-156.7"/>
<image xlink:href="../../images/foreignKeys.png" width="11px" height="12px" preserveAspectRatio="xMinYMin meet" x="464.5" y="-173.7"/>
<text text-anchor="start" x="479.5" y="-163.8" font-family="Helvetica,sans-Serif" font-size="11.00" fill="#000000">cldf_parameterReference</text>
<polygon fill="none" stroke="#000000" points="459.5,-134.7 459.5,-156.7 650.5,-156.7 650.5,-134.7 459.5,-134.7"/>
<image xlink:href="../../images/foreignKeys.png" width="11px" height="12px" preserveAspectRatio="xMinYMin meet" x="464.5" y="-151.7"/>
<text text-anchor="start" x="479.5" y="-141.8" font-family="Helvetica,sans-Serif" font-size="11.00" fill="#000000">cldf_codeReference</text>
<polygon fill="none" stroke="#000000" points="459.5,-115.7 459.5,-134.7 650.5,-134.7 650.5,-115.7 459.5,-115.7"/>
<text text-anchor="start" x="462.5" y="-121.8" font-family="Helvetica,sans-Serif" font-size="11.00" fill="#000000">...</text>
<polygon fill="#ffffff" stroke="transparent" points="459.5,-96.7 459.5,-115.7 529.5,-115.7 529.5,-96.7 459.5,-96.7"/>
<polygon fill="none" stroke="#000000" points="459.5,-96.7 459.5,-115.7 529.5,-115.7 529.5,-96.7 459.5,-96.7"/>
<text text-anchor="start" x="462.5" y="-102.8" font-family="Helvetica,sans-Serif" font-size="11.00" fill="#000000">&lt; 3</text>
<polygon fill="#ffffff" stroke="transparent" points="529.5,-96.7 529.5,-115.7 613.5,-115.7 613.5,-96.7 529.5,-96.7"/>
<polygon fill="none" stroke="#000000" points="529.5,-96.7 529.5,-115.7 613.5,-115.7 613.5,-96.7 529.5,-96.7"/>
<text text-anchor="start" x="556.7089" y="-102.8" font-family="Helvetica,sans-Serif" font-size="11.00" fill="#000000">4,789 rows</text>
<polygon fill="#ffffff" stroke="transparent" points="613.5,-96.7 613.5,-115.7 650.5,-115.7 650.5,-96.7 613.5,-96.7"/>
<polygon fill="none" stroke="#000000" points="613.5,-96.7 613.5,-115.7 650.5,-115.7 650.5,-96.7 613.5,-96.7"/>
<text text-anchor="start" x="641.3862" y="-102.8" font-family="Helvetica,sans-Serif" font-size="11.00" fill="#000000"> &#160;</text>
</a>
</g>
</g>
<!-- ValueTable&#45;&gt;CodeTable -->
<g id="edge7" class="edge">
<title>ValueTable:w&#45;&gt;CodeTable:e</title>
<path fill="none" stroke="#000000" d="M444.9647,-143.6047C419.991,-135.7776 414.3237,-108.7 381.5,-108.7"/>
<polygon fill="#000000" stroke="#000000" points="451.5818,-144.5585 458.9863,-149.2632 455.5409,-145.1293 459.5,-145.7 459.5,-145.7 459.5,-145.7 455.5409,-145.1293 460.0137,-142.1368 451.5818,-144.5585 451.5818,-144.5585"/>
<ellipse fill="none" stroke="#000000" cx="448.4146" cy="-144.1019" rx="3.2" ry="3.2"/>
</g>
<!-- ValueTable&#45;&gt;LanguageTable -->
<g id="edge8" class="edge">
<title>ValueTable:w&#45;&gt;LanguageTable:e</title>
<path fill="none" stroke="#000000" d="M445.1358,-191.2823C408.5685,-199.8905 403.4834,-240.7 358.5,-240.7"/>
<polygon fill="#000000" stroke="#000000" points="451.5481,-190.576 459.8942,-193.2784 455.524,-190.138 459.5,-189.7 459.5,-189.7 459.5,-189.7 455.524,-190.138 459.1058,-186.1216 451.5481,-190.576 451.5481,-190.576"/>
<ellipse fill="none" stroke="#000000" cx="448.3673" cy="-190.9264" rx="3.2" ry="3.2"/>
</g>
<!-- ValueTable&#45;&gt;ParameterTable -->
<g id="edge9" class="edge">
<title>ValueTable:w&#45;&gt;ParameterTable:e</title>
<path fill="none" stroke="#000000" d="M444.9776,-167.7C315.5513,-167.7 277.8646,-167.7 141.5,-167.7"/>
<polygon fill="#000000" stroke="#000000" points="451.5,-167.7001 459.5,-171.3 455.5,-167.7 459.5,-167.7 459.5,-167.7 459.5,-167.7 455.5,-167.7 459.5,-164.1 451.5,-167.7001 451.5,-167.7001"/>
<ellipse fill="none" stroke="#000000" cx="448.3" cy="-167.7001" rx="3.2" ry="3.2"/>
</g>
</g>
</svg>
