<?xml version="1.0" encoding="UTF-8" standalone="no"?>
<!DOCTYPE svg PUBLIC "-//W3C//DTD SVG 1.1//EN"
 "http://www.w3.org/Graphics/SVG/1.1/DTD/svg11.dtd">
<!-- Generated by graphviz version 2.40.1 (20161225.0304)
 -->
<!-- Title: compactRelationshipsDiagram Pages: 1 -->
<svg width="695pt" height="545pt"
 viewBox="0.00 0.00 695.00 545.20" xmlns="http://www.w3.org/2000/svg" xmlns:xlink="http://www.w3.org/1999/xlink">
<g id="graph0" class="graph" transform="scale(1 1) rotate(0) translate(4 541.2)">
<title>compactRelationshipsDiagram</title>
<polygon fill="#ffffff" stroke="transparent" points="-4,4 -4,-541.2 691,-541.2 691,4 -4,4"/>
<text text-anchor="middle" x="72.4936" y="-7.3" font-family="Helvetica,sans-Serif" font-size="11.00" fill="#000000">Generated by SchemaSpy</text>
<!-- CodeTable -->
<g id="node1" class="node">
<title>CodeTable</title>
<g id="a_node1"><a xlink:href="../../tables/CodeTable.html" xlink:title="CodeTable" target="_top">
<polygon fill="#ffffff" stroke="transparent" points="190,-170.2 190,-275.2 381,-275.2 381,-170.2 190,-170.2"/>
<polygon fill="#f5f5f5" stroke="transparent" points="190.5,-251.7 190.5,-274.7 381.5,-274.7 381.5,-251.7 190.5,-251.7"/>
<polygon fill="none" stroke="#000000" points="190.5,-251.7 190.5,-274.7 381.5,-274.7 381.5,-251.7 190.5,-251.7"/>
<text text-anchor="start" x="195.5" y="-260.8" font-family="Helvetica,sans-Serif" font-weight="bold" font-size="11.00" fill="#000000">CodeTable</text>
<text text-anchor="start" x="346.5437" y="-259.8" font-family="Helvetica,sans-Serif" font-size="11.00" fill="#000000">[table]</text>
<polygon fill="none" stroke="#000000" points="190.5,-229.7 190.5,-251.7 381.5,-251.7 381.5,-229.7 190.5,-229.7"/>
<image xlink:href="../../images/primaryKeys.png" width="11px" height="12px" preserveAspectRatio="xMinYMin meet" x="195.5" y="-246.7"/>
<text text-anchor="start" x="210.5" y="-236.8" font-family="Helvetica,sans-Serif" font-size="11.00" fill="#000000">cldf_id</text>
<polygon fill="none" stroke="#000000" points="190.5,-207.7 190.5,-229.7 381.5,-229.7 381.5,-207.7 190.5,-207.7"/>
<image xlink:href="../../images/foreignKeys.png" width="11px" height="12px" preserveAspectRatio="xMinYMin meet" x="195.5" y="-224.7"/>
<text text-anchor="start" x="210.5" y="-214.8" font-family="Helvetica,sans-Serif" font-size="11.00" fill="#000000">cldf_parameterReference</text>
<polygon fill="none" stroke="#000000" points="190.5,-188.7 190.5,-207.7 381.5,-207.7 381.5,-188.7 190.5,-188.7"/>
<text text-anchor="start" x="193.5" y="-194.8" font-family="Helvetica,sans-Serif" font-size="11.00" fill="#000000">...</text>
<polygon fill="#ffffff" stroke="transparent" points="190.5,-169.7 190.5,-188.7 263.5,-188.7 263.5,-169.7 190.5,-169.7"/>
<polygon fill="none" stroke="#000000" points="190.5,-169.7 190.5,-188.7 263.5,-188.7 263.5,-169.7 190.5,-169.7"/>
<text text-anchor="start" x="193.5" y="-175.8" font-family="Helvetica,sans-Serif" font-size="11.00" fill="#000000">&lt; 1</text>
<polygon fill="#ffffff" stroke="transparent" points="263.5,-169.7 263.5,-188.7 333.5,-188.7 333.5,-169.7 263.5,-169.7"/>
<polygon fill="none" stroke="#000000" points="263.5,-169.7 263.5,-188.7 333.5,-188.7 333.5,-169.7 263.5,-169.7"/>
<text text-anchor="start" x="291.9956" y="-175.8" font-family="Helvetica,sans-Serif" font-size="11.00" fill="#000000">24 rows</text>
<polygon fill="#ffffff" stroke="transparent" points="333.5,-169.7 333.5,-188.7 381.5,-188.7 381.5,-169.7 333.5,-169.7"/>
<polygon fill="none" stroke="#000000" points="333.5,-169.7 333.5,-188.7 381.5,-188.7 381.5,-169.7 333.5,-169.7"/>
<text text-anchor="start" x="362.9053" y="-175.8" font-family="Helvetica,sans-Serif" font-size="11.00" fill="#000000">1 &gt;</text>
</a>
</g>
</g>
<!-- ParameterTable -->
<g id="node5" class="node">
<title>ParameterTable</title>
<g id="a_node5"><a xlink:href="../../tables/ParameterTable.html" xlink:title="ParameterTable" target="_top">
<polygon fill="#ffffff" stroke="transparent" points="8,-210.2 8,-293.2 141,-293.2 141,-210.2 8,-210.2"/>
<polygon fill="#f5f5f5" stroke="transparent" points="8.5,-269.7 8.5,-292.7 141.5,-292.7 141.5,-269.7 8.5,-269.7"/>
<polygon fill="none" stroke="#000000" points="8.5,-269.7 8.5,-292.7 141.5,-292.7 141.5,-269.7 8.5,-269.7"/>
<text text-anchor="start" x="13.5" y="-278.8" font-family="Helvetica,sans-Serif" font-weight="bold" font-size="11.00" fill="#000000">ParameterTable</text>
<text text-anchor="start" x="106.5437" y="-277.8" font-family="Helvetica,sans-Serif" font-size="11.00" fill="#000000">[table]</text>
<polygon fill="none" stroke="#000000" points="8.5,-247.7 8.5,-269.7 141.5,-269.7 141.5,-247.7 8.5,-247.7"/>
<image xlink:href="../../images/primaryKeys.png" width="11px" height="12px" preserveAspectRatio="xMinYMin meet" x="13.5" y="-264.7"/>
<text text-anchor="start" x="28.5" y="-254.8" font-family="Helvetica,sans-Serif" font-size="11.00" fill="#000000">cldf_id</text>
<polygon fill="none" stroke="#000000" points="8.5,-228.7 8.5,-247.7 141.5,-247.7 141.5,-228.7 8.5,-228.7"/>
<text text-anchor="start" x="11.5" y="-234.8" font-family="Helvetica,sans-Serif" font-size="11.00" fill="#000000">...</text>
<polygon fill="#ffffff" stroke="transparent" points="8.5,-209.7 8.5,-228.7 51.5,-228.7 51.5,-209.7 8.5,-209.7"/>
<polygon fill="none" stroke="#000000" points="8.5,-209.7 8.5,-228.7 51.5,-228.7 51.5,-209.7 8.5,-209.7"/>
<text text-anchor="start" x="11.5" y="-215.8" font-family="Helvetica,sans-Serif" font-size="11.00" fill="#000000"> &#160;</text>
<polygon fill="#ffffff" stroke="transparent" points="51.5,-209.7 51.5,-228.7 104.5,-228.7 104.5,-209.7 51.5,-209.7"/>
<polygon fill="none" stroke="#000000" points="51.5,-209.7 51.5,-228.7 104.5,-228.7 104.5,-209.7 51.5,-209.7"/>
<text text-anchor="start" x="69.1105" y="-215.8" font-family="Helvetica,sans-Serif" font-size="11.00" fill="#000000">8 rows</text>
<polygon fill="#ffffff" stroke="transparent" points="104.5,-209.7 104.5,-228.7 141.5,-228.7 141.5,-209.7 104.5,-209.7"/>
<polygon fill="none" stroke="#000000" points="104.5,-209.7 104.5,-228.7 141.5,-228.7 141.5,-209.7 104.5,-209.7"/>
<text text-anchor="start" x="122.9053" y="-215.8" font-family="Helvetica,sans-Serif" font-size="11.00" fill="#000000">4 &gt;</text>
</a>
</g>
</g>
<!-- CodeTable&#45;&gt;ParameterTable -->
<g id="edge1" class="edge">
<title>CodeTable:w&#45;&gt;ParameterTable:e</title>
<path fill="none" stroke="#000000" d="M176.7637,-223.2885C163.8632,-233.7952 163.6826,-258.7 141.5,-258.7"/>
<polygon fill="#000000" stroke="#000000" points="182.9121,-221.2347 191.6406,-222.1145 186.7061,-219.9673 190.5,-218.7 190.5,-218.7 190.5,-218.7 186.7061,-219.9673 189.3594,-215.2855 182.9121,-221.2347 182.9121,-221.2347"/>
<ellipse fill="none" stroke="#000000" cx="179.877" cy="-222.2486" rx="3.2" ry="3.2"/>
</g>
<!-- ContributionTable -->
<g id="node2" class="node">
<title>ContributionTable</title>
<g id="a_node2"><a xlink:href="../../tables/ContributionTable.html" xlink:title="ContributionTable" target="_top">
<polygon fill="#ffffff" stroke="transparent" points="214,-38.2 214,-121.2 357,-121.2 357,-38.2 214,-38.2"/>
<polygon fill="#f5f5f5" stroke="transparent" points="214.5,-97.7 214.5,-120.7 357.5,-120.7 357.5,-97.7 214.5,-97.7"/>
<polygon fill="none" stroke="#000000" points="214.5,-97.7 214.5,-120.7 357.5,-120.7 357.5,-97.7 214.5,-97.7"/>
<text text-anchor="start" x="219.5" y="-106.8" font-family="Helvetica,sans-Serif" font-weight="bold" font-size="11.00" fill="#000000">ContributionTable</text>
<text text-anchor="start" x="322.5437" y="-105.8" font-family="Helvetica,sans-Serif" font-size="11.00" fill="#000000">[table]</text>
<polygon fill="none" stroke="#000000" points="214.5,-75.7 214.5,-97.7 357.5,-97.7 357.5,-75.7 214.5,-75.7"/>
<image xlink:href="../../images/primaryKeys.png" width="11px" height="12px" preserveAspectRatio="xMinYMin meet" x="219.5" y="-92.7"/>
<text text-anchor="start" x="234.5" y="-82.8" font-family="Helvetica,sans-Serif" font-size="11.00" fill="#000000">cldf_id</text>
<polygon fill="none" stroke="#000000" points="214.5,-56.7 214.5,-75.7 357.5,-75.7 357.5,-56.7 214.5,-56.7"/>
<text text-anchor="start" x="217.5" y="-62.8" font-family="Helvetica,sans-Serif" font-size="11.00" fill="#000000">...</text>
<polygon fill="#ffffff" stroke="transparent" points="214.5,-37.7 214.5,-56.7 262.5,-56.7 262.5,-37.7 214.5,-37.7"/>
<polygon fill="none" stroke="#000000" points="214.5,-37.7 214.5,-56.7 262.5,-56.7 262.5,-37.7 214.5,-37.7"/>
<text text-anchor="start" x="217.5" y="-43.8" font-family="Helvetica,sans-Serif" font-size="11.00" fill="#000000"> &#160;</text>
<polygon fill="#ffffff" stroke="transparent" points="262.5,-37.7 262.5,-56.7 318.5,-56.7 318.5,-37.7 262.5,-37.7"/>
<polygon fill="none" stroke="#000000" points="262.5,-37.7 262.5,-56.7 318.5,-56.7 318.5,-37.7 262.5,-37.7"/>
<text text-anchor="start" x="283.1105" y="-43.8" font-family="Helvetica,sans-Serif" font-size="11.00" fill="#000000">4 rows</text>
<polygon fill="#ffffff" stroke="transparent" points="318.5,-37.7 318.5,-56.7 357.5,-56.7 357.5,-37.7 318.5,-37.7"/>
<polygon fill="none" stroke="#000000" points="318.5,-37.7 318.5,-56.7 357.5,-56.7 357.5,-37.7 318.5,-37.7"/>
<text text-anchor="start" x="338.9053" y="-43.8" font-family="Helvetica,sans-Serif" font-size="11.00" fill="#000000">1 &gt;</text>
</a>
</g>
</g>
<!-- FormTable -->
<g id="node3" class="node">
<title>FormTable</title>
<g id="a_node3"><a xlink:href="../../tables/FormTable.html" xlink:title="FormTable" target="_top">
<polygon fill="#ffffff" stroke="transparent" points="451.5,-66.2 451.5,-215.2 657.5,-215.2 657.5,-66.2 451.5,-66.2"/>
<polygon fill="#f5f5f5" stroke="transparent" points="451.5,-191.7 451.5,-214.7 657.5,-214.7 657.5,-191.7 451.5,-191.7"/>
<polygon fill="none" stroke="#000000" points="451.5,-191.7 451.5,-214.7 657.5,-214.7 657.5,-191.7 451.5,-191.7"/>
<text text-anchor="start" x="456.5" y="-200.8" font-family="Helvetica,sans-Serif" font-weight="bold" font-size="11.00" fill="#000000">FormTable</text>
<text text-anchor="start" x="622.5437" y="-199.8" font-family="Helvetica,sans-Serif" font-size="11.00" fill="#000000">[table]</text>
<polygon fill="none" stroke="#000000" points="451.5,-169.7 451.5,-191.7 657.5,-191.7 657.5,-169.7 451.5,-169.7"/>
<image xlink:href="../../images/primaryKeys.png" width="11px" height="12px" preserveAspectRatio="xMinYMin meet" x="456.5" y="-186.7"/>
<text text-anchor="start" x="471.5" y="-176.8" font-family="Helvetica,sans-Serif" font-size="11.00" fill="#000000">cldf_id</text>
<polygon fill="none" stroke="#000000" points="451.5,-147.7 451.5,-169.7 657.5,-169.7 657.5,-147.7 451.5,-147.7"/>
<image xlink:href="../../images/foreignKeys.png" width="11px" height="12px" preserveAspectRatio="xMinYMin meet" x="456.5" y="-164.7"/>
<text text-anchor="start" x="471.5" y="-154.8" font-family="Helvetica,sans-Serif" font-size="11.00" fill="#000000">cldf_languageReference</text>
<polygon fill="none" stroke="#000000" points="451.5,-125.7 451.5,-147.7 657.5,-147.7 657.5,-125.7 451.5,-125.7"/>
<image xlink:href="../../images/foreignKeys.png" width="11px" height="12px" preserveAspectRatio="xMinYMin meet" x="456.5" y="-142.7"/>
<text text-anchor="start" x="471.5" y="-132.8" font-family="Helvetica,sans-Serif" font-size="11.00" fill="#000000">cldf_parameterReference</text>
<polygon fill="none" stroke="#000000" points="451.5,-103.7 451.5,-125.7 657.5,-125.7 657.5,-103.7 451.5,-103.7"/>
<image xlink:href="../../images/foreignKeys.png" width="11px" height="12px" preserveAspectRatio="xMinYMin meet" x="456.5" y="-120.7"/>
<text text-anchor="start" x="471.5" y="-110.8" font-family="Helvetica,sans-Serif" font-size="11.00" fill="#000000">cldf_contributionReference</text>
<polygon fill="none" stroke="#000000" points="451.5,-84.7 451.5,-103.7 657.5,-103.7 657.5,-84.7 451.5,-84.7"/>
<text text-anchor="start" x="454.5" y="-90.8" font-family="Helvetica,sans-Serif" font-size="11.00" fill="#000000">...</text>
<polygon fill="#ffffff" stroke="transparent" points="451.5,-65.7 451.5,-84.7 529.5,-84.7 529.5,-65.7 451.5,-65.7"/>
<polygon fill="none" stroke="#000000" points="451.5,-65.7 451.5,-84.7 529.5,-84.7 529.5,-65.7 451.5,-65.7"/>
<text text-anchor="start" x="454.5" y="-71.8" font-family="Helvetica,sans-Serif" font-size="11.00" fill="#000000">&lt; 3</text>
<polygon fill="#ffffff" stroke="transparent" points="529.5,-65.7 529.5,-84.7 616.5,-84.7 616.5,-65.7 529.5,-65.7"/>
<polygon fill="none" stroke="#000000" points="529.5,-65.7 529.5,-84.7 616.5,-84.7 616.5,-65.7 529.5,-65.7"/>
<text text-anchor="start" x="559.7089" y="-71.8" font-family="Helvetica,sans-Serif" font-size="11.00" fill="#000000">2,023 rows</text>
<polygon fill="#ffffff" stroke="transparent" points="616.5,-65.7 616.5,-84.7 657.5,-84.7 657.5,-65.7 616.5,-65.7"/>
<polygon fill="none" stroke="#000000" points="616.5,-65.7 616.5,-84.7 657.5,-84.7 657.5,-65.7 616.5,-65.7"/>
<text text-anchor="start" x="648.3862" y="-71.8" font-family="Helvetica,sans-Serif" font-size="11.00" fill="#000000"> &#160;</text>
</a>
</g>
</g>
<!-- FormTable&#45;&gt;ContributionTable -->
<g id="edge2" class="edge">
<title>FormTable:w&#45;&gt;ContributionTable:e</title>
<path fill="none" stroke="#000000" d="M436.7333,-113.4969C405.6295,-108.1375 395.6428,-86.7 357.5,-86.7"/>
<polygon fill="#000000" stroke="#000000" points="443.5264,-114.0503 451.2076,-118.2881 447.5132,-114.3752 451.5,-114.7 451.5,-114.7 451.5,-114.7 447.5132,-114.3752 451.7924,-111.1119 443.5264,-114.0503 443.5264,-114.0503"/>
<ellipse fill="none" stroke="#000000" cx="440.337" cy="-113.7904" rx="3.2" ry="3.2"/>
</g>
<!-- LanguageTable -->
<g id="node4" class="node">
<title>LanguageTable</title>
<g id="a_node4"><a xlink:href="../../tables/LanguageTable.html" xlink:title="LanguageTable" target="_top">
<polygon fill="#ffffff" stroke="transparent" points="213,-324.2 213,-407.2 358,-407.2 358,-324.2 213,-324.2"/>
<polygon fill="#f5f5f5" stroke="transparent" points="213.5,-383.7 213.5,-406.7 358.5,-406.7 358.5,-383.7 213.5,-383.7"/>
<polygon fill="none" stroke="#000000" points="213.5,-383.7 213.5,-406.7 358.5,-406.7 358.5,-383.7 213.5,-383.7"/>
<text text-anchor="start" x="218.5" y="-392.8" font-family="Helvetica,sans-Serif" font-weight="bold" font-size="11.00" fill="#000000">LanguageTable</text>
<text text-anchor="start" x="323.5437" y="-391.8" font-family="Helvetica,sans-Serif" font-size="11.00" fill="#000000">[table]</text>
<polygon fill="none" stroke="#000000" points="213.5,-361.7 213.5,-383.7 358.5,-383.7 358.5,-361.7 213.5,-361.7"/>
<image xlink:href="../../images/primaryKeys.png" width="11px" height="12px" preserveAspectRatio="xMinYMin meet" x="218.5" y="-378.7"/>
<text text-anchor="start" x="233.5" y="-368.8" font-family="Helvetica,sans-Serif" font-size="11.00" fill="#000000">cldf_id</text>
<polygon fill="none" stroke="#000000" points="213.5,-342.7 213.5,-361.7 358.5,-361.7 358.5,-342.7 213.5,-342.7"/>
<text text-anchor="start" x="216.5" y="-348.8" font-family="Helvetica,sans-Serif" font-size="11.00" fill="#000000">...</text>
<polygon fill="#ffffff" stroke="transparent" points="213.5,-323.7 213.5,-342.7 251.5,-342.7 251.5,-323.7 213.5,-323.7"/>
<polygon fill="none" stroke="#000000" points="213.5,-323.7 213.5,-342.7 251.5,-342.7 251.5,-323.7 213.5,-323.7"/>
<text text-anchor="start" x="216.5" y="-329.8" font-family="Helvetica,sans-Serif" font-size="11.00" fill="#000000"> &#160;</text>
<polygon fill="#ffffff" stroke="transparent" points="251.5,-323.7 251.5,-342.7 323.5,-342.7 323.5,-323.7 251.5,-323.7"/>
<polygon fill="none" stroke="#000000" points="251.5,-323.7 251.5,-342.7 323.5,-342.7 323.5,-323.7 251.5,-323.7"/>
<text text-anchor="start" x="266.7089" y="-329.8" font-family="Helvetica,sans-Serif" font-size="11.00" fill="#000000">1,274 rows</text>
<polygon fill="#ffffff" stroke="transparent" points="323.5,-323.7 323.5,-342.7 358.5,-342.7 358.5,-323.7 323.5,-323.7"/>
<polygon fill="none" stroke="#000000" points="323.5,-323.7 323.5,-342.7 358.5,-342.7 358.5,-323.7 323.5,-323.7"/>
<text text-anchor="start" x="339.9053" y="-329.8" font-family="Helvetica,sans-Serif" font-size="11.00" fill="#000000">3 &gt;</text>
</a>
</g>
</g>
<!-- FormTable&#45;&gt;LanguageTable -->
<g id="edge3" class="edge">
<title>FormTable:w&#45;&gt;LanguageTable:e</title>
<path fill="none" stroke="#000000" d="M436.8494,-160.4226C359.2557,-180.6752 456.7355,-372.7 358.5,-372.7"/>
<polygon fill="#000000" stroke="#000000" points="443.5547,-159.6342 451.9204,-162.2754 447.5274,-159.1671 451.5,-158.7 451.5,-158.7 451.5,-158.7 447.5274,-159.1671 451.0796,-155.1246 443.5547,-159.6342 443.5547,-159.6342"/>
<ellipse fill="none" stroke="#000000" cx="440.3766" cy="-160.0079" rx="3.2" ry="3.2"/>
</g>
<!-- FormTable&#45;&gt;ParameterTable -->
<g id="edge4" class="edge">
<title>FormTable:w&#45;&gt;ParameterTable:e</title>
<path fill="none" stroke="#000000" d="M436.9695,-136.5256C368.7172,-135.1311 226.9326,-126.6762 182,-159.7 143.6937,-187.8537 189.0395,-258.7 141.5,-258.7"/>
<polygon fill="#000000" stroke="#000000" points="443.5006,-136.6039 451.4568,-140.2997 447.5003,-136.652 451.5,-136.7 451.5,-136.7 451.5,-136.7 447.5003,-136.652 451.5432,-133.1003 443.5006,-136.6039 443.5006,-136.6039"/>
<ellipse fill="none" stroke="#000000" cx="440.3008" cy="-136.5655" rx="3.2" ry="3.2"/>
</g>
<!-- replacements.csv -->
<g id="node6" class="node">
<title>replacements.csv</title>
<g id="a_node6"><a xlink:href="../../tables/replacements.csv.html" xlink:title="replacements.csv" target="_top">
<polygon fill="#ffffff" stroke="transparent" points="190,-428.2 190,-533.2 381,-533.2 381,-428.2 190,-428.2"/>
<polygon fill="#f5f5f5" stroke="transparent" points="190.5,-509.7 190.5,-532.7 381.5,-532.7 381.5,-509.7 190.5,-509.7"/>
<polygon fill="none" stroke="#000000" points="190.5,-509.7 190.5,-532.7 381.5,-532.7 381.5,-509.7 190.5,-509.7"/>
<text text-anchor="start" x="195.5" y="-518.8" font-family="Helvetica,sans-Serif" font-weight="bold" font-size="11.00" fill="#000000">replacements.csv</text>
<text text-anchor="start" x="346.5437" y="-517.8" font-family="Helvetica,sans-Serif" font-size="11.00" fill="#000000">[table]</text>
<polygon fill="none" stroke="#000000" points="190.5,-487.7 190.5,-509.7 381.5,-509.7 381.5,-487.7 190.5,-487.7"/>
<image xlink:href="../../images/primaryKeys.png" width="11px" height="12px" preserveAspectRatio="xMinYMin meet" x="195.5" y="-504.7"/>
<text text-anchor="start" x="210.5" y="-494.8" font-family="Helvetica,sans-Serif" font-size="11.00" fill="#000000">cldf_id</text>
<polygon fill="none" stroke="#000000" points="190.5,-465.7 190.5,-487.7 381.5,-487.7 381.5,-465.7 190.5,-465.7"/>
<image xlink:href="../../images/foreignKeys.png" width="11px" height="12px" preserveAspectRatio="xMinYMin meet" x="195.5" y="-482.7"/>
<text text-anchor="start" x="210.5" y="-472.8" font-family="Helvetica,sans-Serif" font-size="11.00" fill="#000000">cldf_parameterReference</text>
<polygon fill="none" stroke="#000000" points="190.5,-446.7 190.5,-465.7 381.5,-465.7 381.5,-446.7 190.5,-446.7"/>
<text text-anchor="start" x="193.5" y="-452.8" font-family="Helvetica,sans-Serif" font-size="11.00" fill="#000000">...</text>
<polygon fill="#ffffff" stroke="transparent" points="190.5,-427.7 190.5,-446.7 260.5,-446.7 260.5,-427.7 190.5,-427.7"/>
<polygon fill="none" stroke="#000000" points="190.5,-427.7 190.5,-446.7 260.5,-446.7 260.5,-427.7 190.5,-427.7"/>
<text text-anchor="start" x="193.5" y="-433.8" font-family="Helvetica,sans-Serif" font-size="11.00" fill="#000000">&lt; 1</text>
<polygon fill="#ffffff" stroke="transparent" points="260.5,-427.7 260.5,-446.7 335.5,-446.7 335.5,-427.7 260.5,-427.7"/>
<polygon fill="none" stroke="#000000" points="260.5,-427.7 260.5,-446.7 335.5,-446.7 335.5,-427.7 260.5,-427.7"/>
<text text-anchor="start" x="287.8807" y="-433.8" font-family="Helvetica,sans-Serif" font-size="11.00" fill="#000000">189 rows</text>
<polygon fill="#ffffff" stroke="transparent" points="335.5,-427.7 335.5,-446.7 381.5,-446.7 381.5,-427.7 335.5,-427.7"/>
<polygon fill="none" stroke="#000000" points="335.5,-427.7 335.5,-446.7 381.5,-446.7 381.5,-427.7 335.5,-427.7"/>
<text text-anchor="start" x="362.9053" y="-433.8" font-family="Helvetica,sans-Serif" font-size="11.00" fill="#000000">1 &gt;</text>
</a>
</g>
</g>
<!-- replacements.csv&#45;&gt;ParameterTable -->
<g id="edge5" class="edge">
<title>replacements.csv:w&#45;&gt;ParameterTable:e</title>
<path fill="none" stroke="#000000" d="M175.9309,-474.6811C107.3435,-452.7041 235.1815,-258.7 141.5,-258.7"/>
<polygon fill="#000000" stroke="#000000" points="182.5757,-475.6018 190.0058,-480.2659 186.5379,-476.1509 190.5,-476.7 190.5,-476.7 190.5,-476.7 186.5379,-476.1509 190.9942,-473.1341 182.5757,-475.6018 182.5757,-475.6018"/>
<ellipse fill="none" stroke="#000000" cx="179.406" cy="-475.1626" rx="3.2" ry="3.2"/>
</g>
<!-- replacements.csv_LanguageTable -->
<g id="node7" class="node">
<title>replacements.csv_LanguageTable</title>
<g id="a_node7"><a xlink:href="../../tables/replacements.csv_LanguageTable.html" xlink:title="replacements.csv_LanguageTable" target="_top">
<polygon fill="#ffffff" stroke="transparent" points="430,-420.2 430,-525.2 679,-525.2 679,-420.2 430,-420.2"/>
<polygon fill="#f5f5f5" stroke="transparent" points="430.5,-501.7 430.5,-524.7 679.5,-524.7 679.5,-501.7 430.5,-501.7"/>
<polygon fill="none" stroke="#000000" points="430.5,-501.7 430.5,-524.7 679.5,-524.7 679.5,-501.7 430.5,-501.7"/>
<text text-anchor="start" x="435.5" y="-510.8" font-family="Helvetica,sans-Serif" font-weight="bold" font-size="11.00" fill="#000000">replacements.csv_LanguageTable</text>
<text text-anchor="start" x="644.5437" y="-509.8" font-family="Helvetica,sans-Serif" font-size="11.00" fill="#000000">[table]</text>
<polygon fill="none" stroke="#000000" points="430.5,-479.7 430.5,-501.7 679.5,-501.7 679.5,-479.7 430.5,-479.7"/>
<image xlink:href="../../images/foreignKeys.png" width="11px" height="12px" preserveAspectRatio="xMinYMin meet" x="435.5" y="-496.7"/>
<text text-anchor="start" x="450.5" y="-486.8" font-family="Helvetica,sans-Serif" font-size="11.00" fill="#000000">replacements.csv_cldf_id</text>
<polygon fill="none" stroke="#000000" points="430.5,-457.7 430.5,-479.7 679.5,-479.7 679.5,-457.7 430.5,-457.7"/>
<image xlink:href="../../images/foreignKeys.png" width="11px" height="12px" preserveAspectRatio="xMinYMin meet" x="435.5" y="-474.7"/>
<text text-anchor="start" x="450.5" y="-464.8" font-family="Helvetica,sans-Serif" font-size="11.00" fill="#000000">LanguageTable_cldf_id</text>
<polygon fill="none" stroke="#000000" points="430.5,-438.7 430.5,-457.7 679.5,-457.7 679.5,-438.7 430.5,-438.7"/>
<text text-anchor="start" x="433.5" y="-444.8" font-family="Helvetica,sans-Serif" font-size="11.00" fill="#000000">...</text>
<polygon fill="#ffffff" stroke="transparent" points="430.5,-419.7 430.5,-438.7 534.5,-438.7 534.5,-419.7 430.5,-419.7"/>
<polygon fill="none" stroke="#000000" points="430.5,-419.7 430.5,-438.7 534.5,-438.7 534.5,-419.7 430.5,-419.7"/>
<text text-anchor="start" x="433.5" y="-425.8" font-family="Helvetica,sans-Serif" font-size="11.00" fill="#000000">&lt; 2</text>
<polygon fill="#ffffff" stroke="transparent" points="534.5,-419.7 534.5,-438.7 625.5,-438.7 625.5,-419.7 534.5,-419.7"/>
<polygon fill="none" stroke="#000000" points="534.5,-419.7 534.5,-438.7 625.5,-438.7 625.5,-419.7 534.5,-419.7"/>
<text text-anchor="start" x="577.8807" y="-425.8" font-family="Helvetica,sans-Serif" font-size="11.00" fill="#000000">665 rows</text>
<polygon fill="#ffffff" stroke="transparent" points="625.5,-419.7 625.5,-438.7 679.5,-438.7 679.5,-419.7 625.5,-419.7"/>
<polygon fill="none" stroke="#000000" points="625.5,-419.7 625.5,-438.7 679.5,-438.7 679.5,-419.7 625.5,-419.7"/>
<text text-anchor="start" x="670.3862" y="-425.8" font-family="Helvetica,sans-Serif" font-size="11.00" fill="#000000"> &#160;</text>
</a>
</g>
</g>
<!-- replacements.csv_LanguageTable&#45;&gt;LanguageTable -->
<g id="edge6" class="edge">
<title>replacements.csv_LanguageTable:w&#45;&gt;LanguageTable:e</title>
<path fill="none" stroke="#000000" d="M416.3552,-465.7216C383.5003,-449.5179 406.2083,-372.7 358.5,-372.7"/>
<polygon fill="#000000" stroke="#000000" points="422.6717,-467.0516 429.7582,-472.2228 426.5858,-467.8758 430.5,-468.7 430.5,-468.7 430.5,-468.7 426.5858,-467.8758 431.2418,-465.1772 422.6717,-467.0516 422.6717,-467.0516"/>
<ellipse fill="none" stroke="#000000" cx="419.5403" cy="-466.3923" rx="3.2" ry="3.2"/>
</g>
<!-- replacements.csv_LanguageTable&#45;&gt;replacements.csv -->
<g id="edge7" class="edge">
<title>replacements.csv_LanguageTable:w&#45;&gt;replacements.csv:e</title>
<path fill="none" stroke="#000000" d="M415.9118,-492.0935C404.6344,-494.3855 397.7048,-498.7 381.5,-498.7"/>
<polygon fill="#000000" stroke="#000000" points="422.5362,-491.4608 430.8423,-494.2837 426.5181,-491.0804 430.5,-490.7 430.5,-490.7 430.5,-490.7 426.5181,-491.0804 430.1577,-487.1163 422.5362,-491.4608 422.5362,-491.4608"/>
<ellipse fill="none" stroke="#000000" cx="419.3507" cy="-491.7651" rx="3.2" ry="3.2"/>
</g>
<!-- ValueTable -->
<g id="node8" class="node">
<title>ValueTable</title>
<g id="a_node8"><a xlink:href="../../tables/ValueTable.html" xlink:title="ValueTable" target="_top">
<polygon fill="#ffffff" stroke="transparent" points="459,-236.2 459,-385.2 650,-385.2 650,-236.2 459,-236.2"/>
<polygon fill="#f5f5f5" stroke="transparent" points="459.5,-361.7 459.5,-384.7 650.5,-384.7 650.5,-361.7 459.5,-361.7"/>
<polygon fill="none" stroke="#000000" points="459.5,-361.7 459.5,-384.7 650.5,-384.7 650.5,-361.7 459.5,-361.7"/>
<text text-anchor="start" x="464.5" y="-370.8" font-family="Helvetica,sans-Serif" font-weight="bold" font-size="11.00" fill="#000000">ValueTable</text>
<text text-anchor="start" x="615.5437" y="-369.8" font-family="Helvetica,sans-Serif" font-size="11.00" fill="#000000">[table]</text>
<polygon fill="none" stroke="#000000" points="459.5,-339.7 459.5,-361.7 650.5,-361.7 650.5,-339.7 459.5,-339.7"/>
<image xlink:href="../../images/primaryKeys.png" width="11px" height="12px" preserveAspectRatio="xMinYMin meet" x="464.5" y="-356.7"/>
<text text-anchor="start" x="479.5" y="-346.8" font-family="Helvetica,sans-Serif" font-size="11.00" fill="#000000">cldf_id</text>
<polygon fill="none" stroke="#000000" points="459.5,-317.7 459.5,-339.7 650.5,-339.7 650.5,-317.7 459.5,-317.7"/>
<image xlink:href="../../images/foreignKeys.png" width="11px" height="12px" preserveAspectRatio="xMinYMin meet" x="464.5" y="-334.7"/>
<text text-anchor="start" x="479.5" y="-324.8" font-family="Helvetica,sans-Serif" font-size="11.00" fill="#000000">cldf_languageReference</text>
<polygon fill="none" stroke="#000000" points="459.5,-295.7 459.5,-317.7 650.5,-317.7 650.5,-295.7 459.5,-295.7"/>
<image xlink:href="../../images/foreignKeys.png" width="11px" height="12px" preserveAspectRatio="xMinYMin meet" x="464.5" y="-312.7"/>
<text text-anchor="start" x="479.5" y="-302.8" font-family="Helvetica,sans-Serif" font-size="11.00" fill="#000000">cldf_parameterReference</text>
<polygon fill="none" stroke="#000000" points="459.5,-273.7 459.5,-295.7 650.5,-295.7 650.5,-273.7 459.5,-273.7"/>
<image xlink:href="../../images/foreignKeys.png" width="11px" height="12px" preserveAspectRatio="xMinYMin meet" x="464.5" y="-290.7"/>
<text text-anchor="start" x="479.5" y="-280.8" font-family="Helvetica,sans-Serif" font-size="11.00" fill="#000000">cldf_codeReference</text>
<polygon fill="none" stroke="#000000" points="459.5,-254.7 459.5,-273.7 650.5,-273.7 650.5,-254.7 459.5,-254.7"/>
<text text-anchor="start" x="462.5" y="-260.8" font-family="Helvetica,sans-Serif" font-size="11.00" fill="#000000">...</text>
<polygon fill="#ffffff" stroke="transparent" points="459.5,-235.7 459.5,-254.7 529.5,-254.7 529.5,-235.7 459.5,-235.7"/>
<polygon fill="none" stroke="#000000" points="459.5,-235.7 459.5,-254.7 529.5,-254.7 529.5,-235.7 459.5,-235.7"/>
<text text-anchor="start" x="462.5" y="-241.8" font-family="Helvetica,sans-Serif" font-size="11.00" fill="#000000">&lt; 3</text>
<polygon fill="#ffffff" stroke="transparent" points="529.5,-235.7 529.5,-254.7 613.5,-254.7 613.5,-235.7 529.5,-235.7"/>
<polygon fill="none" stroke="#000000" points="529.5,-235.7 529.5,-254.7 613.5,-254.7 613.5,-235.7 529.5,-235.7"/>
<text text-anchor="start" x="556.7089" y="-241.8" font-family="Helvetica,sans-Serif" font-size="11.00" fill="#000000">4,789 rows</text>
<polygon fill="#ffffff" stroke="transparent" points="613.5,-235.7 613.5,-254.7 650.5,-254.7 650.5,-235.7 613.5,-235.7"/>
<polygon fill="none" stroke="#000000" points="613.5,-235.7 613.5,-254.7 650.5,-254.7 650.5,-235.7 613.5,-235.7"/>
<text text-anchor="start" x="641.3862" y="-241.8" font-family="Helvetica,sans-Serif" font-size="11.00" fill="#000000"> &#160;</text>
</a>
</g>
</g>
<!-- ValueTable&#45;&gt;CodeTable -->
<g id="edge8" class="edge">
<title>ValueTable:w&#45;&gt;CodeTable:e</title>
<path fill="none" stroke="#000000" d="M444.9347,-282.3344C419.3303,-273.1951 415.7048,-240.7 381.5,-240.7"/>
<polygon fill="#000000" stroke="#000000" points="451.6035,-283.4174 458.9228,-288.2534 455.5517,-284.0587 459.5,-284.7 459.5,-284.7 459.5,-284.7 455.5517,-284.0587 460.0772,-281.1466 451.6035,-283.4174 451.6035,-283.4174"/>
<ellipse fill="none" stroke="#000000" cx="448.4449" cy="-282.9044" rx="3.2" ry="3.2"/>
</g>
<!-- ValueTable&#45;&gt;LanguageTable -->
<g id="edge9" class="edge">
<title>ValueTable:w&#45;&gt;LanguageTable:e</title>
<path fill="none" stroke="#000000" d="M444.9607,-330.164C409.3153,-337.7986 402.1082,-372.7 358.5,-372.7"/>
<polygon fill="#000000" stroke="#000000" points="451.5402,-329.5015 459.8607,-332.2819 455.5201,-329.1008 459.5,-328.7 459.5,-328.7 459.5,-328.7 455.5201,-329.1008 459.1393,-325.1181 451.5402,-329.5015 451.5402,-329.5015"/>
<ellipse fill="none" stroke="#000000" cx="448.3563" cy="-329.8221" rx="3.2" ry="3.2"/>
</g>
<!-- ValueTable&#45;&gt;ParameterTable -->
<g id="edge10" class="edge">
<title>ValueTable:w&#45;&gt;ParameterTable:e</title>
<path fill="none" stroke="#000000" d="M445.05,-306.7877C332.7329,-308.1489 294.259,-324.3733 182,-285.7 161.5464,-278.6537 163.1333,-258.7 141.5,-258.7"/>
<polygon fill="#000000" stroke="#000000" points="451.5001,-306.7486 459.5219,-310.2999 455.5001,-306.7243 459.5,-306.7 459.5,-306.7 459.5,-306.7 455.5001,-306.7243 459.4781,-303.1001 451.5001,-306.7486 451.5001,-306.7486"/>
<ellipse fill="none" stroke="#000000" cx="448.3002" cy="-306.768" rx="3.2" ry="3.2"/>
</g>
</g>
</svg>

